<svg width="736" height="166" viewBox="0 0 736 166" fill="none" xmlns="http://www.w3.org/2000/svg">
<g filter="url(#filter0_d_6_11)">
<path d="M40.7344 18.5986C38.6836 18.5986 37.1683 17.5163 36.1885 15.3516C35.7327 14.3262 35.277 13.7109 34.8213 13.5059C34.4795 13.3464 33.5794 13.2666 32.1211 13.2666C29.25 13.2666 25.9346 15.4997 22.1748 19.9658C16.9111 26.2093 14.2793 32.054 14.2793 37.5C14.2793 39.9837 15.111 42.1143 16.7744 43.8916C18.4378 45.6689 20.4316 46.5576 22.7559 46.5576C25.0117 46.5576 27.3018 45.9652 29.626 44.7803C30.4463 44.3473 32.1781 43.2308 34.8213 41.4307C36.5986 40.2458 37.943 39.6533 38.8545 39.6533C40.2217 39.6533 41.3838 40.1546 42.3408 41.1572C43.2295 42.0915 43.6738 43.1624 43.6738 44.3701C43.6738 45.7145 43.0814 46.888 41.8965 47.8906C35.6302 53.1771 29.25 55.8203 22.7559 55.8203C17.6289 55.8203 13.2995 53.9518 9.76758 50.2148C6.39518 46.6146 4.70898 42.3763 4.70898 37.5C4.70898 29.8665 8.0472 22.0736 14.7236 14.1211C20.3975 7.3763 26.1966 4.00391 32.1211 4.00391C33.1237 4.00391 34.0238 4.03809 34.8213 4.10645C35.6416 4.1748 36.3594 4.27734 36.9746 4.41406C37.9772 3.43424 39.1849 2.94434 40.5977 2.94434C42.9219 2.94434 44.3574 4.27734 44.9043 6.94336C45.2917 8.85742 45.4854 11.0905 45.4854 13.6426C45.4854 14.7819 45.1549 15.8187 44.4941 16.7529C43.6283 17.9834 42.375 18.5986 40.7344 18.5986ZM89.0645 56.0254C87.2643 55.957 85.4528 53.8379 83.6299 49.668C82.4222 46.9792 81.3854 43.8802 80.5195 40.3711C78.8333 40.6217 76.0762 40.8724 72.248 41.123C68.6478 41.3737 65.8906 41.6699 63.9766 42.0117C62.9284 44.5182 61.1055 48.2894 58.5078 53.3252C57.5052 54.9658 56.1152 55.7861 54.3379 55.7861C53.0846 55.7861 51.9567 55.3646 50.9541 54.5215C49.9515 53.6556 49.4502 52.5618 49.4502 51.2402C49.4502 50.0781 51.1136 46.1361 54.4404 39.4141C54.1214 38.7077 53.9847 38.0469 54.0303 37.4316C54.1214 36.3379 55.2266 35.4834 57.3457 34.8682C60.5814 29.2627 64.1816 23.4521 68.1465 17.4365C73.8431 8.80046 77.3522 4.48242 78.6738 4.48242C81.1803 4.48242 82.8551 5.99772 83.6982 9.02832C84.154 11.4665 84.8717 15.1237 85.8516 20C87.2415 26.5625 88.9391 34.0706 90.9443 42.5244C91.1038 43.1624 91.6849 44.6663 92.6875 47.0361C93.5078 48.9958 93.918 50.4655 93.918 51.4453C93.918 52.7669 93.4167 53.8721 92.4141 54.7607C91.4342 55.6494 90.3177 56.071 89.0645 56.0254ZM76.3154 20.957C74.5381 24.0104 72.0885 28.1689 68.9668 33.4326C69.9922 33.2048 71.5872 33.0225 73.752 32.8857C76.304 32.7262 77.9105 32.6009 78.5713 32.5098C78.0244 29.5475 77.2725 25.6966 76.3154 20.957ZM141.838 14.0186C140.061 14.0186 137.292 13.8932 133.532 13.6426C129.909 13.3919 127.141 13.278 125.227 13.3008C125.318 15.8984 125.625 20.5241 126.149 27.1777C126.628 33.0566 126.867 37.7051 126.867 41.123C126.867 41.8978 126.947 43.0485 127.106 44.5752C127.266 46.1019 127.346 47.2526 127.346 48.0273C127.346 49.7363 126.981 51.2744 126.252 52.6416C125.318 54.3962 123.985 55.2734 122.253 55.2734C121 55.2734 119.895 54.8747 118.938 54.0771C117.867 53.1885 117.331 52.0719 117.331 50.7275C117.331 50.4085 117.388 49.93 117.502 49.292C117.616 48.6312 117.673 48.1299 117.673 47.7881C117.673 46.7399 117.593 45.1562 117.434 43.0371C117.297 40.918 117.229 39.3229 117.229 38.252C117.229 35.1986 116.989 31.0628 116.511 25.8447C115.964 19.8519 115.645 15.7161 115.554 13.4375H113.776C108.695 13.4375 104.662 13.0729 101.677 12.3438C99.1475 11.7285 97.8828 10.236 97.8828 7.86621C97.8828 6.7041 98.293 5.65592 99.1133 4.72168C100.07 3.60514 101.324 3.10384 102.873 3.21777C103.671 3.26335 105.482 3.45703 108.308 3.79883C110.563 4.04948 112.386 4.1748 113.776 4.1748C115.166 4.1748 117.24 4.15202 119.997 4.10645C122.777 4.06087 124.862 4.03809 126.252 4.03809C127.984 4.03809 130.581 4.16341 134.045 4.41406C137.508 4.64193 140.106 4.75586 141.838 4.75586C143.205 4.75586 144.344 5.2002 145.256 6.08887C146.19 6.97754 146.657 8.07129 146.657 9.37012C146.657 10.6689 146.19 11.7741 145.256 12.6855C144.344 13.5742 143.205 14.0186 141.838 14.0186ZM184.187 11.1816C183.731 11.1816 183.252 11.1133 182.751 10.9766C179.06 9.97396 175.471 9.47266 171.984 9.47266C170.275 9.47266 168.441 9.60938 166.481 9.88281C164.522 10.1562 162.437 10.5664 160.227 11.1133C160.227 14.1439 160.124 18.6442 159.919 24.6143C161.195 24.5231 165.65 24.1016 173.283 23.3496C177.635 22.9167 180.393 22.7002 181.555 22.7002C182.899 22.7002 184.05 23.1331 185.007 23.999C185.964 24.8421 186.442 25.9701 186.442 27.3828C186.442 30.0944 184.995 31.6325 182.102 31.9971C180.279 32.1338 177.556 32.3617 173.933 32.6807C170.697 33.0452 165.821 33.4896 159.304 34.0137C159.144 36.9076 159.064 39.2432 159.064 41.0205C159.064 45.4867 159.326 48.0273 159.851 48.6426C160.101 48.9388 161.537 49.0869 164.157 49.0869C165.57 49.0869 167.701 49.0527 170.549 48.9844C173.397 48.916 175.528 48.8818 176.94 48.8818C177.396 48.8818 178.068 48.8135 178.957 48.6768C179.846 48.54 180.507 48.4717 180.939 48.4717C182.261 48.4717 183.389 48.8477 184.323 49.5996C185.394 50.4427 185.93 51.6276 185.93 53.1543C185.93 55.7064 184.597 57.2331 181.931 57.7344C179.652 58.1673 174.924 58.3838 167.746 58.3838C160.318 58.3838 155.476 57.3812 153.22 55.376C150.736 53.1657 149.494 48.3805 149.494 41.0205C149.494 37.9671 149.711 33.387 150.144 27.2803C150.599 21.1507 150.827 16.5706 150.827 13.54C150.827 12.7425 150.713 11.569 150.485 10.0195C150.257 8.44727 150.144 7.26237 150.144 6.46484C150.144 3.0013 151.739 1.26953 154.929 1.26953C155.931 1.26953 156.854 1.55436 157.697 2.12402C160.34 1.46322 162.847 0.973307 165.217 0.654297C167.609 0.3125 169.865 0.141602 171.984 0.141602C177.727 0.141602 182.318 0.802409 185.759 2.12402C187.855 2.92155 188.903 4.36849 188.903 6.46484C188.903 7.64974 188.493 8.69792 187.673 9.60938C186.761 10.6576 185.599 11.1816 184.187 11.1816ZM228.518 55.4102C227.287 55.4102 226.159 54.9316 225.134 53.9746C218.229 47.5033 210.642 43.0143 202.37 40.5078C202.621 47.1387 202.746 50.8187 202.746 51.5479C202.746 52.8467 202.29 53.9518 201.379 54.8633C200.467 55.752 199.328 56.1963 197.961 56.1963C196.594 56.1963 195.454 55.752 194.543 54.8633C193.632 53.9518 193.176 52.8467 193.176 51.5479C193.176 49.8389 193.199 47.2868 193.244 43.8916C193.29 40.4736 193.312 37.9102 193.312 36.2012L193.381 8.61816C193.381 7.13704 193.825 5.79264 194.714 4.58496C195.876 3.03548 197.482 2.34049 199.533 2.5C205.07 2.91016 207.907 3.12663 208.044 3.14941C211.234 3.53678 213.946 4.30013 216.179 5.43945C225.909 10.3385 230.773 16.4111 230.773 23.6572C230.773 26.6423 229.748 29.2855 227.697 31.5869C225.669 33.8656 222.616 35.791 218.537 37.3633C224.576 40.7357 229.121 44.1764 232.175 47.6855C232.972 48.597 233.371 49.611 233.371 50.7275C233.371 52.0036 232.893 53.1087 231.936 54.043C230.979 54.9544 229.839 55.4102 228.518 55.4102ZM206.608 12.4121C206.426 12.3893 205.093 12.2982 202.609 12.1387V30.2881C203.179 30.3109 203.68 30.3223 204.113 30.3223C209.696 30.3223 213.832 29.6273 216.521 28.2373C217.683 27.6449 218.742 26.8587 219.699 25.8789C220.679 24.8991 221.169 24.1585 221.169 23.6572C221.169 21.1051 219.551 18.6442 216.315 16.2744C213.239 14.0413 210.004 12.7539 206.608 12.4121ZM267.585 14.5996C266.4 14.5996 263.153 14.2806 257.844 13.6426C257.525 17.8353 257.365 23.4066 257.365 30.3564L257.331 45.7031C260.362 45.6348 263.449 45.6006 266.594 45.6006C267.961 45.6006 269.089 46.0563 269.978 46.9678C270.889 47.8792 271.345 48.973 271.345 50.249C271.345 51.5251 270.889 52.6188 269.978 53.5303C269.089 54.4189 267.961 54.8633 266.594 54.8633C265.318 54.8633 263.404 54.8975 260.852 54.9658C258.299 55.0114 256.385 55.0342 255.109 55.0342C253.605 55.0342 251.35 55.2279 248.342 55.6152C245.334 56.0254 243.078 56.2305 241.574 56.2305C240.207 56.2305 239.068 55.7861 238.156 54.8975C237.268 53.986 236.823 52.8923 236.823 51.6162C236.823 50.3402 237.268 49.2464 238.156 48.335C239.068 47.4235 240.207 46.9678 241.574 46.9678C243.124 46.9678 245.163 46.7969 247.692 46.4551C247.647 43.7663 247.624 38.6165 247.624 31.0059C247.624 24.8079 247.852 18.8949 248.308 13.2666L240.891 13.4717C239.523 13.4717 238.373 13.0273 237.438 12.1387C236.527 11.25 236.071 10.1449 236.071 8.82324C236.071 7.47884 236.527 6.38509 237.438 5.54199C238.282 4.76725 239.318 4.32292 240.549 4.20898C242.554 4.02669 246.04 3.93555 251.008 3.93555C255.474 3.93555 261.228 4.41406 268.269 5.37109C271.071 5.75846 272.473 7.33073 272.473 10.0879C272.473 11.5462 271.903 12.6969 270.764 13.54C269.829 14.2464 268.77 14.5996 267.585 14.5996ZM327.194 46.5918C327.194 47.7311 327.001 49.5312 326.613 51.9922C326.158 54.9316 324.494 56.4014 321.623 56.4014C320.028 56.4014 318.228 55.5013 316.223 53.7012C307.45 45.7943 297.549 34.7087 286.521 20.4443C286.384 26.3688 286.315 30.0033 286.315 31.3477C286.315 33.1478 286.35 35.8594 286.418 39.4824C286.509 43.1055 286.555 45.8171 286.555 47.6172C286.555 54.3392 284.914 57.7002 281.633 57.7002C279.969 57.7002 278.636 57.1875 277.634 56.1621C276.745 55.2507 276.301 54.1455 276.301 52.8467C276.301 51.9352 276.369 50.5566 276.506 48.7109C276.665 46.8652 276.745 45.4867 276.745 44.5752C276.745 43.2308 276.791 41.2142 276.882 38.5254C276.973 35.8366 277.019 33.82 277.019 32.4756C277.019 31.04 276.984 28.8753 276.916 25.9814C276.848 23.0876 276.813 20.9229 276.813 19.4873C276.813 18.1201 276.677 16.0807 276.403 13.3691C276.13 10.6576 275.993 8.61816 275.993 7.25098C275.993 5.88379 276.574 4.66471 277.736 3.59375C278.921 2.52279 280.266 1.9873 281.77 1.9873C283.456 1.9873 285.324 3.44564 287.375 6.3623C297.72 21.1279 307.928 33.1706 318 42.4902C318.023 41.7611 318.034 40.0293 318.034 37.2949C318.034 26.0612 317.92 18.4847 317.692 14.5654C317.647 13.9046 317.499 12.6742 317.248 10.874C317.02 9.27897 316.906 8.02572 316.906 7.11426C316.906 3.96973 318.57 2.39746 321.896 2.39746C325.611 2.39746 327.468 8.12826 327.468 19.5898C327.468 19.8405 327.445 21.6406 327.399 24.9902C327.263 36.5658 327.194 43.7663 327.194 46.5918ZM375.729 34.9023C374.18 41.6927 371.058 47.1273 366.364 51.2061C361.602 55.3076 356.019 57.3584 349.616 57.3584C343.555 57.3584 339.009 55.7633 335.979 52.5732C332.948 49.3604 331.433 44.5524 331.433 38.1494C331.433 32.3161 332.868 26.3346 335.739 20.2051C338.61 14.0755 342.302 9.10807 346.813 5.30273C349.981 2.63672 353.376 1.30371 356.999 1.30371C359.209 1.30371 362.217 2.10124 366.022 3.69629C370.534 5.58757 372.79 7.60417 372.79 9.74609C372.79 10.9766 372.323 12.0817 371.389 13.0615C370.454 14.0186 369.304 14.4971 367.937 14.4971C367.253 14.4971 365.738 13.859 363.391 12.583C361.066 11.2842 358.936 10.6348 356.999 10.6348C354.948 10.6348 352.18 12.8451 348.693 17.2656C343.612 23.6914 341.071 30.6527 341.071 38.1494C341.071 41.9548 341.63 44.541 342.746 45.9082C343.931 47.3438 346.221 48.0615 349.616 48.0615C353.103 48.0615 356.167 47.0703 358.811 45.0879C361.613 42.9915 363.687 39.9382 365.031 35.9277C359.745 36.3379 355.142 37.4202 351.223 39.1748C350.516 39.4938 349.81 39.6533 349.104 39.6533C347.691 39.6533 346.517 39.1292 345.583 38.0811C344.74 37.1468 344.318 36.0872 344.318 34.9023C344.318 31.416 348.443 28.9779 356.691 27.5879C361.34 26.8132 366.763 26.4258 372.961 26.4258C374.328 26.4258 375.467 26.8701 376.379 27.7588C377.313 28.6475 377.78 29.7412 377.78 31.04C377.78 32.7035 377.097 33.9909 375.729 34.9023ZM448.19 58.2129C446.664 58.2129 445.399 57.4609 444.396 55.957C443.713 54.8177 442.688 53.0973 441.32 50.7959C436.74 54.5557 431.716 56.4355 426.247 56.4355C421.667 56.4355 417.736 55.0798 414.455 52.3682C410.969 49.5199 409.226 45.8968 409.226 41.499C409.226 37.2607 410.935 33.5807 414.353 30.459C415.446 29.4336 419.024 26.984 425.085 23.1104C423.763 19.4645 423.103 16.263 423.103 13.5059C423.103 11.0449 424.151 8.49284 426.247 5.84961C428.503 2.97852 430.975 1.54297 433.664 1.54297C436.763 1.54297 439.304 2.53418 441.286 4.5166C443.177 6.40788 444.123 8.7207 444.123 11.4551C444.123 16.7415 441.411 21.4242 435.988 25.5029C437.583 28.7386 439.338 31.849 441.252 34.834L442.38 29.4678C443.155 27.3031 444.453 26.2207 446.276 26.2207C447.621 26.2207 448.703 26.8473 449.523 28.1006C450.23 29.1715 450.583 30.3678 450.583 31.6895C450.583 35.9277 449.466 39.9951 447.233 43.8916C450.902 49.3148 452.736 52.71 452.736 54.0771C452.736 55.262 452.269 56.2419 451.335 57.0166C450.401 57.8141 449.353 58.2129 448.19 58.2129ZM433.664 9.98535C433.026 10.0537 432.502 10.498 432.092 11.3184C431.75 12.0247 431.579 12.7425 431.579 13.4717C431.579 13.7907 431.796 14.668 432.229 16.1035C432.707 17.6986 432.958 18.5758 432.98 18.7354C433.732 17.9834 434.462 17.015 435.168 15.8301C435.965 14.5085 436.364 13.4717 436.364 12.7197C436.364 11.6943 436.239 10.9993 435.988 10.6348C435.601 10.0879 434.826 9.87142 433.664 9.98535ZM428.947 30.3906C426.577 31.8945 424.219 33.3984 421.872 34.9023C419.32 36.9076 418.044 39.1064 418.044 41.499C418.044 43.4359 418.864 45.0195 420.505 46.25C422.077 47.4349 423.991 48.0273 426.247 48.0273C430.075 48.0273 433.47 46.569 436.433 43.6523C435.043 41.5788 432.548 37.1582 428.947 30.3906ZM514.396 53.667C509.087 55.6494 502.377 56.6406 494.265 56.6406C492.897 56.6406 491.667 56.071 490.573 54.9316C489.502 53.7923 488.967 52.5732 488.967 51.2744V15.0439C488.898 13.4945 488.841 11.945 488.796 10.3955C488.728 8.64095 488.785 7.15983 488.967 5.95215C489.286 3.81022 491.28 2.51139 494.948 2.05566C496.68 1.55436 499.551 1.30371 503.562 1.30371C507.868 1.30371 511.993 2.69368 515.935 5.47363C520.56 8.70931 522.873 12.7539 522.873 17.6074C522.873 20.2279 522.395 22.4382 521.438 24.2383C520.686 25.6966 519.375 27.2575 517.507 28.9209C519.717 29.9919 521.677 31.6097 523.386 33.7744C525.323 36.1898 526.291 38.5938 526.291 40.9863C526.291 44.0169 524.639 46.888 521.335 49.5996C519.125 51.3997 516.812 52.7555 514.396 53.667ZM503.562 10.5664C500.622 10.5664 498.856 10.5892 498.264 10.6348L498.298 17.8809L498.264 25.0586C500.337 25.3092 501.898 25.389 502.946 25.2979C509.919 24.751 513.405 22.1875 513.405 17.6074C513.405 15.9896 512.38 14.4287 510.329 12.9248C508.21 11.3525 505.954 10.5664 503.562 10.5664ZM507.561 34.7314C505.487 34.7314 502.388 34.6517 498.264 34.4922V47.2754C502.183 47.0703 506.433 46.3184 511.013 45.0195C515.023 43.8802 517.006 42.6497 516.96 41.3281C516.892 39.5736 515.604 38.0127 513.098 36.6455C511.138 35.5518 509.292 34.9137 507.561 34.7314ZM566.247 11.1816C565.791 11.1816 565.313 11.1133 564.812 10.9766C561.12 9.97396 557.531 9.47266 554.045 9.47266C552.336 9.47266 550.502 9.60938 548.542 9.88281C546.582 10.1562 544.497 10.5664 542.287 11.1133C542.287 14.1439 542.185 18.6442 541.979 24.6143C543.256 24.5231 547.71 24.1016 555.344 23.3496C559.696 22.9167 562.453 22.7002 563.615 22.7002C564.96 22.7002 566.11 23.1331 567.067 23.999C568.024 24.8421 568.503 25.9701 568.503 27.3828C568.503 30.0944 567.056 31.6325 564.162 31.9971C562.339 32.1338 559.616 32.3617 555.993 32.6807C552.757 33.0452 547.881 33.4896 541.364 34.0137C541.205 36.9076 541.125 39.2432 541.125 41.0205C541.125 45.4867 541.387 48.0273 541.911 48.6426C542.162 48.9388 543.597 49.0869 546.218 49.0869C547.631 49.0869 549.761 49.0527 552.609 48.9844C555.458 48.916 557.588 48.8818 559.001 48.8818C559.457 48.8818 560.129 48.8135 561.018 48.6768C561.906 48.54 562.567 48.4717 563 48.4717C564.322 48.4717 565.45 48.8477 566.384 49.5996C567.455 50.4427 567.99 51.6276 567.99 53.1543C567.99 55.7064 566.657 57.2331 563.991 57.7344C561.713 58.1673 556.984 58.3838 549.807 58.3838C542.378 58.3838 537.536 57.3812 535.28 55.376C532.797 53.1657 531.555 48.3805 531.555 41.0205C531.555 37.9671 531.771 33.387 532.204 27.2803C532.66 21.1507 532.888 16.5706 532.888 13.54C532.888 12.7425 532.774 11.569 532.546 10.0195C532.318 8.44727 532.204 7.26237 532.204 6.46484C532.204 3.0013 533.799 1.26953 536.989 1.26953C537.992 1.26953 538.915 1.55436 539.758 2.12402C542.401 1.46322 544.908 0.973307 547.277 0.654297C549.67 0.3125 551.926 0.141602 554.045 0.141602C559.787 0.141602 564.379 0.802409 567.819 2.12402C569.916 2.92155 570.964 4.36849 570.964 6.46484C570.964 7.64974 570.554 8.69792 569.733 9.60938C568.822 10.6576 567.66 11.1816 566.247 11.1816ZM626.13 46.5918C626.13 47.7311 625.936 49.5312 625.549 51.9922C625.093 54.9316 623.43 56.4014 620.559 56.4014C618.964 56.4014 617.163 55.5013 615.158 53.7012C606.385 45.7943 596.485 34.7087 585.456 20.4443C585.319 26.3688 585.251 30.0033 585.251 31.3477C585.251 33.1478 585.285 35.8594 585.354 39.4824C585.445 43.1055 585.49 45.8171 585.49 47.6172C585.49 54.3392 583.85 57.7002 580.568 57.7002C578.905 57.7002 577.572 57.1875 576.569 56.1621C575.681 55.2507 575.236 54.1455 575.236 52.8467C575.236 51.9352 575.305 50.5566 575.441 48.7109C575.601 46.8652 575.681 45.4867 575.681 44.5752C575.681 43.2308 575.726 41.2142 575.817 38.5254C575.909 35.8366 575.954 33.82 575.954 32.4756C575.954 31.04 575.92 28.8753 575.852 25.9814C575.783 23.0876 575.749 20.9229 575.749 19.4873C575.749 18.1201 575.612 16.0807 575.339 13.3691C575.065 10.6576 574.929 8.61816 574.929 7.25098C574.929 5.88379 575.51 4.66471 576.672 3.59375C577.857 2.52279 579.201 1.9873 580.705 1.9873C582.391 1.9873 584.26 3.44564 586.311 6.3623C596.656 21.1279 606.864 33.1706 616.936 42.4902C616.958 41.7611 616.97 40.0293 616.97 37.2949C616.97 26.0612 616.856 18.4847 616.628 14.5654C616.582 13.9046 616.434 12.6742 616.184 10.874C615.956 9.27897 615.842 8.02572 615.842 7.11426C615.842 3.96973 617.505 2.39746 620.832 2.39746C624.546 2.39746 626.403 8.12826 626.403 19.5898C626.403 19.8405 626.381 21.6406 626.335 24.9902C626.198 36.5658 626.13 43.7663 626.13 46.5918ZM673.332 14.0186C671.555 14.0186 668.786 13.8932 665.026 13.6426C661.403 13.3919 658.635 13.278 656.721 13.3008C656.812 15.8984 657.119 20.5241 657.644 27.1777C658.122 33.0566 658.361 37.7051 658.361 41.123C658.361 41.8978 658.441 43.0485 658.601 44.5752C658.76 46.1019 658.84 47.2526 658.84 48.0273C658.84 49.7363 658.475 51.2744 657.746 52.6416C656.812 54.3962 655.479 55.2734 653.747 55.2734C652.494 55.2734 651.389 54.8747 650.432 54.0771C649.361 53.1885 648.825 52.0719 648.825 50.7275C648.825 50.4085 648.882 49.93 648.996 49.292C649.11 48.6312 649.167 48.1299 649.167 47.7881C649.167 46.7399 649.087 45.1562 648.928 43.0371C648.791 40.918 648.723 39.3229 648.723 38.252C648.723 35.1986 648.483 31.0628 648.005 25.8447C647.458 19.8519 647.139 15.7161 647.048 13.4375H645.271C640.189 13.4375 636.156 13.0729 633.171 12.3438C630.642 11.7285 629.377 10.236 629.377 7.86621C629.377 6.7041 629.787 5.65592 630.607 4.72168C631.564 3.60514 632.818 3.10384 634.367 3.21777C635.165 3.26335 636.976 3.45703 639.802 3.79883C642.058 4.04948 643.881 4.1748 645.271 4.1748C646.66 4.1748 648.734 4.15202 651.491 4.10645C654.271 4.06087 656.356 4.03809 657.746 4.03809C659.478 4.03809 662.076 4.16341 665.539 4.41406C669.003 4.64193 671.6 4.75586 673.332 4.75586C674.699 4.75586 675.839 5.2002 676.75 6.08887C677.684 6.97754 678.151 8.07129 678.151 9.37012C678.151 10.6689 677.684 11.7741 676.75 12.6855C675.839 13.5742 674.699 14.0186 673.332 14.0186ZM704.641 57.085C697.896 57.085 692.154 55.1481 687.414 51.2744C682.355 47.1273 679.826 41.7611 679.826 35.1758C679.826 27.4284 682.253 20.3646 687.106 13.9844C692.552 6.80664 699.411 3.21777 707.683 3.21777C715.635 3.21777 721.594 5.04069 725.559 8.68652C729.523 12.3324 731.506 17.8125 731.506 25.127C731.506 32.8743 729.273 39.8926 724.807 46.1816C719.657 53.4505 712.935 57.085 704.641 57.085ZM707.683 12.4805C702.601 12.4805 698.249 14.9414 694.626 19.8633C691.231 24.4661 689.533 29.5703 689.533 35.1758C689.533 38.9583 691.003 42.0345 693.942 44.4043C696.768 46.6829 700.334 47.8223 704.641 47.8223C709.654 47.8223 713.835 45.3613 717.185 40.4395C720.261 35.9505 721.799 30.8464 721.799 25.127C721.799 20.3418 720.728 17.015 718.586 15.1465C716.535 13.3691 712.901 12.4805 707.683 12.4805ZM45.7246 154.025C43.9245 153.957 42.113 151.838 40.29 147.668C39.0824 144.979 38.0456 141.88 37.1797 138.371C35.4935 138.622 32.7363 138.872 28.9082 139.123C25.3079 139.374 22.5508 139.67 20.6367 140.012C19.5885 142.518 17.7656 146.289 15.168 151.325C14.1654 152.966 12.7754 153.786 10.998 153.786C9.74479 153.786 8.61686 153.365 7.61426 152.521C6.61165 151.656 6.11035 150.562 6.11035 149.24C6.11035 148.078 7.77376 144.136 11.1006 137.414C10.7816 136.708 10.6449 136.047 10.6904 135.432C10.7816 134.338 11.8867 133.483 14.0059 132.868C17.2415 127.263 20.8418 121.452 24.8066 115.437C30.5033 106.8 34.0124 102.482 35.334 102.482C37.8405 102.482 39.5153 103.998 40.3584 107.028C40.8141 109.466 41.5319 113.124 42.5117 118C43.9017 124.562 45.5993 132.071 47.6045 140.524C47.764 141.162 48.3451 142.666 49.3477 145.036C50.168 146.996 50.5781 148.465 50.5781 149.445C50.5781 150.767 50.0768 151.872 49.0742 152.761C48.0944 153.649 46.9779 154.071 45.7246 154.025ZM32.9756 118.957C31.1982 122.01 28.7487 126.169 25.627 131.433C26.6523 131.205 28.2474 131.022 30.4121 130.886C32.9642 130.726 34.5706 130.601 35.2314 130.51C34.6846 127.548 33.9326 123.697 32.9756 118.957ZM89.8164 151.701C87.1276 152.886 82.9691 153.946 77.3408 154.88C72.1911 155.746 67.9642 156.179 64.6602 156.179C59.0775 156.179 56.2861 153.729 56.2861 148.83C56.2861 149.217 56.514 145.606 56.9697 137.995C57.5622 128.106 57.8584 117.1 57.8584 104.978C57.8584 103.679 58.3027 102.574 59.1914 101.662C60.1029 100.751 61.2422 100.295 62.6094 100.295C63.9766 100.295 65.1159 100.751 66.0273 101.662C66.9388 102.574 67.3945 103.679 67.3945 104.978C67.3945 117.123 67.0869 128.311 66.4717 138.542C66.2666 140.365 66.0501 143.156 65.8223 146.916C71.2227 146.825 78.1497 145.503 86.6035 142.951C87.1276 142.792 87.6289 142.712 88.1074 142.712C89.543 142.712 90.7051 143.236 91.5938 144.284C92.3913 145.218 92.79 146.267 92.79 147.429C92.79 149.388 91.7988 150.812 89.8164 151.701ZM135.48 154.025C133.68 153.957 131.869 151.838 130.046 147.668C128.838 144.979 127.801 141.88 126.936 138.371C125.249 138.622 122.492 138.872 118.664 139.123C115.064 139.374 112.307 139.67 110.393 140.012C109.344 142.518 107.521 146.289 104.924 151.325C103.921 152.966 102.531 153.786 100.754 153.786C99.5007 153.786 98.3727 153.365 97.3701 152.521C96.3675 151.656 95.8662 150.562 95.8662 149.24C95.8662 148.078 97.5296 144.136 100.856 137.414C100.537 136.708 100.401 136.047 100.446 135.432C100.537 134.338 101.643 133.483 103.762 132.868C106.997 127.263 110.598 121.452 114.562 115.437C120.259 106.8 123.768 102.482 125.09 102.482C127.596 102.482 129.271 103.998 130.114 107.028C130.57 109.466 131.288 113.124 132.268 118C133.658 124.562 135.355 132.071 137.36 140.524C137.52 141.162 138.101 142.666 139.104 145.036C139.924 146.996 140.334 148.465 140.334 149.445C140.334 150.767 139.833 151.872 138.83 152.761C137.85 153.649 136.734 154.071 135.48 154.025ZM122.731 118.957C120.954 122.01 118.505 126.169 115.383 131.433C116.408 131.205 118.003 131.022 120.168 130.886C122.72 130.726 124.326 130.601 124.987 130.51C124.44 127.548 123.688 123.697 122.731 118.957Z" fill="white"/>
<path d="M215.222 111.027C214.812 111.027 214.162 110.993 213.273 110.925C212.385 110.834 211.667 110.788 211.12 110.788H208.454C208.431 110.401 208.42 111.21 208.42 113.215C208.42 129.53 207.269 141.413 204.968 148.864C203.282 154.356 200.217 157.102 195.773 157.102C191.535 157.102 187.342 155.643 183.195 152.727C178.501 149.468 176.154 145.64 176.154 141.242C176.154 137.688 177.761 135.91 180.974 135.91C184.187 135.91 185.793 137.665 185.793 141.174C185.793 142.518 186.944 143.965 189.245 145.515C191.569 147.041 193.745 147.805 195.773 147.805C196.594 147.805 197.186 146.289 197.551 143.259C197.642 142.53 197.893 138.986 198.303 132.629C198.645 127.434 198.815 120.962 198.815 113.215C198.815 112.896 198.781 112.155 198.713 110.993L197.927 111.027C196.924 111.073 195.58 111.062 193.894 110.993C191.866 110.902 190.521 110.856 189.86 110.856C188.516 110.856 187.377 110.446 186.442 109.626C185.44 108.737 184.938 107.587 184.938 106.174C184.938 103.075 186.978 101.525 191.057 101.525C191.831 101.525 192.982 101.56 194.509 101.628C196.035 101.674 197.175 101.696 197.927 101.696C199.362 101.696 201.504 101.617 204.353 101.457C207.224 101.298 209.377 101.218 210.812 101.218C216.919 101.218 219.973 102.915 219.973 106.311C219.973 107.495 219.562 108.555 218.742 109.489C217.808 110.515 216.634 111.027 215.222 111.027ZM258.767 109.182C258.311 109.182 257.832 109.113 257.331 108.977C253.64 107.974 250.051 107.473 246.564 107.473C244.855 107.473 243.021 107.609 241.062 107.883C239.102 108.156 237.017 108.566 234.807 109.113C234.807 112.144 234.704 116.644 234.499 122.614C235.775 122.523 240.23 122.102 247.863 121.35C252.215 120.917 254.973 120.7 256.135 120.7C257.479 120.7 258.63 121.133 259.587 121.999C260.544 122.842 261.022 123.97 261.022 125.383C261.022 128.094 259.576 129.632 256.682 129.997C254.859 130.134 252.136 130.362 248.513 130.681C245.277 131.045 240.401 131.49 233.884 132.014C233.724 134.908 233.645 137.243 233.645 139.021C233.645 143.487 233.907 146.027 234.431 146.643C234.681 146.939 236.117 147.087 238.737 147.087C240.15 147.087 242.281 147.053 245.129 146.984C247.977 146.916 250.108 146.882 251.521 146.882C251.976 146.882 252.648 146.813 253.537 146.677C254.426 146.54 255.087 146.472 255.52 146.472C256.841 146.472 257.969 146.848 258.903 147.6C259.974 148.443 260.51 149.628 260.51 151.154C260.51 153.706 259.177 155.233 256.511 155.734C254.232 156.167 249.504 156.384 242.326 156.384C234.898 156.384 230.056 155.381 227.8 153.376C225.316 151.166 224.074 146.381 224.074 139.021C224.074 135.967 224.291 131.387 224.724 125.28C225.179 119.151 225.407 114.571 225.407 111.54C225.407 110.743 225.293 109.569 225.065 108.02C224.838 106.447 224.724 105.262 224.724 104.465C224.724 101.001 226.319 99.2695 229.509 99.2695C230.511 99.2695 231.434 99.5544 232.277 100.124C234.921 99.4632 237.427 98.9733 239.797 98.6543C242.189 98.3125 244.445 98.1416 246.564 98.1416C252.307 98.1416 256.898 98.8024 260.339 100.124C262.435 100.922 263.483 102.368 263.483 104.465C263.483 105.65 263.073 106.698 262.253 107.609C261.341 108.658 260.179 109.182 258.767 109.182ZM278.728 133.928C278.34 133.928 277.383 133.848 275.856 133.688C275.72 136.879 275.651 142.119 275.651 149.411C275.651 150.619 275.23 151.656 274.387 152.521C273.544 153.387 272.473 153.82 271.174 153.82C269.875 153.82 268.793 153.387 267.927 152.521C267.084 151.656 266.662 150.619 266.662 149.411V139.875C266.662 136.343 266.89 131.114 267.346 124.187C267.779 117.146 268.007 111.893 268.029 108.43C268.052 102.505 269.715 99.6683 273.02 99.9189C273.794 99.7139 274.865 99.5658 276.232 99.4746C277.6 99.3607 279.263 99.3037 281.223 99.3037C285.689 99.3037 289.882 100.751 293.801 103.645C298.153 106.88 300.329 110.822 300.329 115.471C300.329 121.304 298.016 125.941 293.391 129.382C289.289 132.412 284.401 133.928 278.728 133.928ZM280.437 108.122C279.707 108.122 279.058 108.133 278.488 108.156C277.941 108.156 277.474 108.179 277.087 108.225C277.087 109.296 277.076 110.902 277.053 113.044C277.007 115.573 276.791 119.515 276.403 124.87C277.565 125.052 278.34 125.144 278.728 125.144C282.282 125.144 285.233 124.3 287.58 122.614C290.087 120.814 291.34 118.433 291.34 115.471C291.34 113.534 290.166 111.813 287.819 110.31C285.563 108.851 283.103 108.122 280.437 108.122ZM344.66 154.025C342.86 153.957 341.049 151.838 339.226 147.668C338.018 144.979 336.981 141.88 336.115 138.371C334.429 138.622 331.672 138.872 327.844 139.123C324.243 139.374 321.486 139.67 319.572 140.012C318.524 142.518 316.701 146.289 314.104 151.325C313.101 152.966 311.711 153.786 309.934 153.786C308.68 153.786 307.552 153.365 306.55 152.521C305.547 151.656 305.046 150.562 305.046 149.24C305.046 148.078 306.709 144.136 310.036 137.414C309.717 136.708 309.58 136.047 309.626 135.432C309.717 134.338 310.822 133.483 312.941 132.868C316.177 127.263 319.777 121.452 323.742 115.437C329.439 106.8 332.948 102.482 334.27 102.482C336.776 102.482 338.451 103.998 339.294 107.028C339.75 109.466 340.467 113.124 341.447 118C342.837 124.562 344.535 132.071 346.54 140.524C346.7 141.162 347.281 142.666 348.283 145.036C349.104 146.996 349.514 148.465 349.514 149.445C349.514 150.767 349.012 151.872 348.01 152.761C347.03 153.649 345.913 154.071 344.66 154.025ZM331.911 118.957C330.134 122.01 327.684 126.169 324.562 131.433C325.588 131.205 327.183 131.022 329.348 130.886C331.9 130.726 333.506 130.601 334.167 130.51C333.62 127.548 332.868 123.697 331.911 118.957ZM407.175 144.592C407.175 145.731 406.981 147.531 406.594 149.992C406.138 152.932 404.475 154.401 401.604 154.401C400.008 154.401 398.208 153.501 396.203 151.701C387.43 143.794 377.53 132.709 366.501 118.444C366.364 124.369 366.296 128.003 366.296 129.348C366.296 131.148 366.33 133.859 366.398 137.482C366.49 141.105 366.535 143.817 366.535 145.617C366.535 152.339 364.895 155.7 361.613 155.7C359.95 155.7 358.617 155.188 357.614 154.162C356.726 153.251 356.281 152.146 356.281 150.847C356.281 149.935 356.35 148.557 356.486 146.711C356.646 144.865 356.726 143.487 356.726 142.575C356.726 141.231 356.771 139.214 356.862 136.525C356.953 133.837 356.999 131.82 356.999 130.476C356.999 129.04 356.965 126.875 356.896 123.981C356.828 121.088 356.794 118.923 356.794 117.487C356.794 116.12 356.657 114.081 356.384 111.369C356.11 108.658 355.974 106.618 355.974 105.251C355.974 103.884 356.555 102.665 357.717 101.594C358.902 100.523 360.246 99.9873 361.75 99.9873C363.436 99.9873 365.305 101.446 367.355 104.362C377.701 119.128 387.909 131.171 397.98 140.49C398.003 139.761 398.015 138.029 398.015 135.295C398.015 124.061 397.901 116.485 397.673 112.565C397.627 111.905 397.479 110.674 397.229 108.874C397.001 107.279 396.887 106.026 396.887 105.114C396.887 101.97 398.55 100.397 401.877 100.397C405.591 100.397 407.448 106.128 407.448 117.59C407.448 117.84 407.425 119.641 407.38 122.99C407.243 134.566 407.175 141.766 407.175 144.592ZM455.71 132.902C454.16 139.693 451.039 145.127 446.345 149.206C441.582 153.308 436 155.358 429.597 155.358C423.535 155.358 418.99 153.763 415.959 150.573C412.928 147.36 411.413 142.552 411.413 136.149C411.413 130.316 412.849 124.335 415.72 118.205C418.591 112.076 422.282 107.108 426.794 103.303C429.961 100.637 433.356 99.3037 436.979 99.3037C439.19 99.3037 442.198 100.101 446.003 101.696C450.515 103.588 452.771 105.604 452.771 107.746C452.771 108.977 452.303 110.082 451.369 111.062C450.435 112.019 449.284 112.497 447.917 112.497C447.233 112.497 445.718 111.859 443.371 110.583C441.047 109.284 438.916 108.635 436.979 108.635C434.929 108.635 432.16 110.845 428.674 115.266C423.592 121.691 421.052 128.653 421.052 136.149C421.052 139.955 421.61 142.541 422.727 143.908C423.911 145.344 426.201 146.062 429.597 146.062C433.083 146.062 436.148 145.07 438.791 143.088C441.594 140.992 443.667 137.938 445.012 133.928C439.725 134.338 435.122 135.42 431.203 137.175C430.497 137.494 429.79 137.653 429.084 137.653C427.671 137.653 426.498 137.129 425.563 136.081C424.72 135.147 424.299 134.087 424.299 132.902C424.299 129.416 428.423 126.978 436.672 125.588C441.32 124.813 446.743 124.426 452.941 124.426C454.309 124.426 455.448 124.87 456.359 125.759C457.294 126.647 457.761 127.741 457.761 129.04C457.761 130.703 457.077 131.991 455.71 132.902Z" fill="#AE1919"/>
</g>
<defs>
<filter id="filter0_d_6_11" x="0.708984" y="0.141602" width="734.797" height="164.96" filterUnits="userSpaceOnUse" color-interpolation-filters="sRGB">
<feFlood flood-opacity="0" result="BackgroundImageFix"/>
<feColorMatrix in="SourceAlpha" type="matrix" values="0 0 0 0 0 0 0 0 0 0 0 0 0 0 0 0 0 0 127 0" result="hardAlpha"/>
<feOffset dy="4"/>
<feGaussianBlur stdDeviation="2"/>
<feComposite in2="hardAlpha" operator="out"/>
<feColorMatrix type="matrix" values="0 0 0 0 0 0 0 0 0 0 0 0 0 0 0 0 0 0 0.25 0"/>
<feBlend mode="normal" in2="BackgroundImageFix" result="effect1_dropShadow_6_11"/>
<feBlend mode="normal" in="SourceGraphic" in2="effect1_dropShadow_6_11" result="shape"/>
</filter>
</defs>
</svg>
