<svg width="736" height="260" viewBox="0 0 736 260" fill="none" xmlns="http://www.w3.org/2000/svg">
<path d="M30.0879 36.0977C30.0879 36.6602 29.9941 37.5977 29.8066 38.9102C29.6191 40.0938 28.9922 40.6855 27.9258 40.6855C27.2812 40.6855 26.5137 40.2637 25.623 39.4199C20.8535 34.9082 15.3809 28.3984 9.20508 19.8906L9.11719 23.8809L9.06445 27.8887C9.06445 28.8613 9.08203 30.3203 9.11719 32.2656C9.16406 34.2109 9.1875 35.6758 9.1875 36.6602C9.1875 39.8125 8.57812 41.3887 7.35938 41.3887C6.71484 41.3887 6.20508 41.1836 5.83008 40.7734C5.49023 40.4102 5.32031 39.9766 5.32031 39.4727C5.32031 38.9805 5.35547 38.2363 5.42578 37.2402C5.50781 36.2441 5.54883 35.5 5.54883 35.0078C5.54883 34.2812 5.57227 33.1973 5.61914 31.7559C5.66602 30.3027 5.68945 29.2129 5.68945 28.4863C5.68945 27.7129 5.67188 26.5469 5.63672 24.9883C5.60156 23.418 5.58398 22.2461 5.58398 21.4727C5.58398 20.7344 5.51367 19.6387 5.37305 18.1855C5.23242 16.7207 5.16211 15.6191 5.16211 14.8809C5.16211 14.3418 5.39062 13.8496 5.84766 13.4043C6.31641 12.959 6.84375 12.7363 7.42969 12.7363C8.05078 12.7363 8.81836 13.416 9.73242 14.7754C12.6504 19.1465 15.2754 22.7793 17.6074 25.6738C20.3848 29.1074 23.4316 32.3887 26.748 35.5176C26.7832 35.0137 26.7832 34.2695 26.748 33.2852L26.6953 31.0703C26.6953 25.9258 26.4961 21.8301 26.0977 18.7832C26.0508 18.4785 25.8926 17.8633 25.623 16.9375C25.3887 16.1406 25.2715 15.5195 25.2715 15.0742C25.2715 13.7148 25.8926 13.0352 27.1348 13.0352C29.1738 13.0352 30.1934 16.8379 30.1934 24.4434C30.1934 25.7441 30.1758 27.6895 30.1406 30.2793C30.1055 32.8574 30.0879 34.7969 30.0879 36.0977ZM37.4883 17.7461C36.9258 17.7461 36.4395 17.5469 36.0293 17.1484C35.6191 16.75 35.4141 16.2695 35.4141 15.707C35.4141 15.1445 35.6191 14.6641 36.0293 14.2656C36.4395 13.8672 36.9258 13.668 37.4883 13.668C38.0508 13.668 38.5312 13.8672 38.9297 14.2656C39.3398 14.6641 39.5449 15.1445 39.5449 15.707C39.5449 16.2695 39.3398 16.75 38.9297 17.1484C38.5312 17.5469 38.0508 17.7461 37.4883 17.7461ZM38.2793 32.0195C38.2793 32.7227 38.2969 33.7773 38.332 35.1836C38.3789 36.5781 38.4023 37.627 38.4023 38.3301C38.4023 38.8457 38.2441 39.2676 37.9277 39.5957C37.6113 39.9238 37.1953 40.0879 36.6797 40.0879C36.1758 40.0879 35.7598 39.9238 35.4316 39.5957C35.1152 39.2676 34.957 38.8457 34.957 38.3301C34.957 37.627 34.9336 36.5781 34.8867 35.1836C34.8516 33.7773 34.834 32.7227 34.834 32.0195C34.834 30.918 34.8926 29.5469 35.0098 27.9062C35.127 26.2539 35.1855 24.877 35.1855 23.7754C35.1855 23.248 35.3438 22.8203 35.6602 22.4922C35.9883 22.1641 36.4043 22 36.9082 22C37.4121 22 37.8223 22.1641 38.1387 22.4922C38.4668 22.8203 38.6309 23.248 38.6309 23.7754C38.6309 24.877 38.5723 26.2539 38.4551 27.9062C38.3379 29.5469 38.2793 30.918 38.2793 32.0195ZM58.8633 40.7207C58.2188 40.7207 57.7207 40.3809 57.3691 39.7012C56.7598 38.5176 55.8398 37.1172 54.6094 35.5L51.498 31.2637C50.8184 31.8027 49.7637 32.5586 48.334 33.5312C48.2051 35.3477 48.1406 37.1172 48.1406 38.8398C48.1406 39.3672 47.9766 39.7949 47.6484 40.123C47.332 40.4512 46.9219 40.6152 46.418 40.6152C45.2344 40.6152 44.6426 39.8184 44.6426 38.2246C44.6426 37.252 44.707 35.7988 44.8359 33.8652C44.9766 31.9199 45.0469 30.4609 45.0469 29.4883C45.0469 27.707 45.0703 25.6738 45.1172 23.3887C45.1758 21.0918 45.2051 19.0645 45.2051 17.3066C45.2051 16.7793 45.1758 16.1582 45.1172 15.4434C45.0703 14.7285 45.0469 14.1074 45.0469 13.5801C45.0469 13.0527 45.2051 12.625 45.5215 12.2969C45.8496 11.9687 46.2656 11.8047 46.7695 11.8047C47.2734 11.8047 47.6836 11.9687 48 12.2969C48.3281 12.625 48.4922 13.0527 48.4922 13.5801C48.4922 14.1191 48.5215 14.7578 48.5801 15.4961C48.6387 16.2227 48.668 16.8555 48.668 17.3945L48.5449 23.0547C48.4863 25.0938 48.4688 27.1328 48.4922 29.1719C50.0859 27.9531 51.6211 26.6172 53.0977 25.1641L56.9648 21.1738C57.3516 20.7754 57.7676 20.5762 58.2129 20.5762C58.6699 20.5762 59.0801 20.7578 59.4434 21.1211C59.8184 21.4844 60.0059 21.9062 60.0059 22.3867C60.0059 22.7852 59.8359 23.1777 59.4961 23.5645C58.0547 25.252 56.2793 27.0625 54.1699 28.9961L58.002 34.2168C59.7949 36.666 60.6914 38.2598 60.6914 38.998C60.6914 39.4668 60.5039 39.8711 60.1289 40.2109C59.7656 40.5508 59.3438 40.7207 58.8633 40.7207ZM85.9863 41.459C85.0254 41.459 84.4629 40.9492 84.2988 39.9297C84.0879 38.6406 83.877 36.8242 83.666 34.4805L83.0684 29.0312C82.9512 28.2227 82.752 27.4316 82.4707 26.6582C82.0723 25.6035 81.6387 25.0762 81.1699 25.0762C80.7363 25.0762 79.9277 25.4453 78.7441 26.1836C77.6191 26.8633 76.8809 27.4082 76.5293 27.8184C76.5176 28.9199 76.5469 30.0215 76.6172 31.123L77.1445 35.8164C77.3672 37.668 77.4785 39.1973 77.4785 40.4043C77.4785 40.9199 77.3145 41.3418 76.9863 41.6699C76.6699 42.0098 76.2598 42.1797 75.7559 42.1797C75.252 42.1797 74.8359 42.0098 74.5078 41.6699C74.1914 41.3418 74.0332 40.9199 74.0332 40.4043C74.0332 38.9863 73.8867 36.8945 73.5938 34.1289C73.3125 31.3516 73.1719 29.2539 73.1719 27.8359C73.1719 26.5938 72.9961 25.627 72.6445 24.9355C71.8242 25.3105 70.9922 25.9199 70.1484 26.7637L68.0742 29.084C67.8867 29.3652 67.5879 29.7344 67.1777 30.1914C67.1777 30.8945 67.1133 31.9316 66.9844 33.3027C66.8555 34.6738 66.791 35.6875 66.791 36.3438C66.791 36.6953 66.8438 37.1875 66.9492 37.8203C67.0664 38.4531 67.125 38.9102 67.125 39.1914C67.125 39.6719 66.9434 40.0762 66.5801 40.4043C66.2285 40.7324 65.8125 40.8965 65.332 40.8965C64.0078 40.8965 63.3457 39.3906 63.3457 36.3789C63.3457 35.6758 63.4102 34.627 63.5391 33.2324C63.668 31.8379 63.7324 30.7891 63.7324 30.0859C63.7324 29.4648 63.6738 28.5332 63.5566 27.291C63.4512 26.0488 63.3984 25.1113 63.3984 24.4785C63.3984 21.8184 63.9961 20.4883 65.1914 20.4883C65.6484 20.4883 66.0645 20.6875 66.4395 21.0859C66.8262 21.4844 67.0195 21.918 67.0195 22.3867C67.0195 22.6094 66.9902 22.9551 66.9316 23.4238C66.873 23.8926 66.8438 24.25 66.8438 24.4961L66.8789 26.3418C67.4883 25.0879 68.3848 23.957 69.5684 22.9492C70.752 21.9297 71.7598 21.4199 72.5918 21.4199C74.4316 21.4199 75.6973 22.334 76.3887 24.1621C77.0332 23.3066 77.8008 22.668 78.6914 22.2461C79.582 21.8125 80.6016 21.5957 81.75 21.5957C83.707 21.5957 85.043 22.6504 85.7578 24.7598C85.8984 25.1816 86.1387 26.8281 86.4785 29.6992C86.8066 31.7148 87.2285 35.0723 87.7441 39.7715C87.7793 40.2402 87.6211 40.6387 87.2695 40.9668C86.918 41.2949 86.4902 41.459 85.9863 41.459ZM105.375 41.1602C105.152 41.1602 104.748 40.9023 104.162 40.3867C103.635 39.9062 103.242 39.4785 102.984 39.1035C101.859 39.7129 100.869 40.1699 100.014 40.4746C99.1582 40.791 98.4434 40.9492 97.8691 40.9492C95.127 40.9492 93.1289 40.1758 91.875 38.6289C90.6914 37.1758 90.0996 34.9492 90.0996 31.9492C90.0996 29.1133 91.0723 26.6875 93.0176 24.6719C94.9746 22.6562 97.3066 21.6484 100.014 21.6484C101.033 21.6484 102.176 21.9121 103.441 22.4395C105.035 23.0957 105.832 23.8867 105.832 24.8125C105.832 25.1289 105.715 25.4102 105.48 25.6562C105.363 26.1016 105.27 26.834 105.199 27.8535C105.141 28.873 105.105 30.1797 105.094 31.7734C105.082 33.2266 105.182 34.375 105.393 35.2188C105.51 35.7344 105.879 36.7656 106.5 38.3125C106.582 38.5234 106.717 38.834 106.904 39.2441L107.01 39.543C107.01 40.0117 106.846 40.3984 106.518 40.7031C106.189 41.0078 105.809 41.1602 105.375 41.1602ZM101.719 28.9434C101.719 28.4395 101.748 27.8945 101.807 27.3086C101.877 26.7109 101.977 26.0781 102.105 25.4102C101.672 25.1875 101.297 25.0234 100.98 24.918C100.676 24.8125 100.43 24.7598 100.242 24.7598C98.4258 24.7598 96.8555 25.5039 95.5312 26.9922C94.2188 28.4688 93.5625 30.1738 93.5625 32.1074C93.5625 34.0293 93.9023 35.4707 94.582 36.4316C95.2617 37.3926 96.2812 37.873 97.6406 37.873C98.7656 37.873 99.7207 37.668 100.506 37.2578C100.928 37.0352 101.52 36.5898 102.281 35.9219C101.906 32.8164 101.719 30.4902 101.719 28.9434ZM121.828 25.0234C121.582 25.0234 121.289 25.0117 120.949 24.9883C120.621 24.9648 120.334 24.9531 120.088 24.9531C119.818 24.9531 119.021 25.041 117.697 25.2168L118.031 35.6055L118.049 36.3789L118.066 37.2754C118.113 39.8418 117.498 41.125 116.221 41.125C115.752 41.125 115.342 40.9727 114.99 40.668C114.65 40.3633 114.48 39.9824 114.48 39.5254C114.48 39.0801 114.498 38.4121 114.533 37.5215C114.568 36.6309 114.586 35.9629 114.586 35.5176L114.234 25.252C113.379 25.2168 112.078 25.1172 110.332 24.9531C109.289 24.8125 108.768 24.2324 108.768 23.2129C108.768 22.6973 108.926 22.2695 109.242 21.9297C109.559 21.5898 109.963 21.4199 110.455 21.4199L114.146 21.7188C114.146 21.1211 114.117 20.3242 114.059 19.3281C114.012 18.3203 113.988 17.5938 113.988 17.1484C113.988 16.6562 114.158 16.252 114.498 15.9355C114.838 15.6074 115.254 15.4434 115.746 15.4434C116.801 15.4434 117.416 16.3047 117.592 18.0273C117.627 18.4609 117.645 18.9824 117.645 19.5918L117.609 20.6113L117.592 21.7012C119.045 21.5137 119.877 21.4199 120.088 21.4199C121.307 21.4199 122.104 21.4785 122.479 21.5957C123.193 21.8301 123.551 22.3809 123.551 23.248C123.551 23.7637 123.387 24.1914 123.059 24.5312C122.742 24.8594 122.332 25.0234 121.828 25.0234ZM129.615 46.0469C129.205 46.0469 128.848 45.8887 128.543 45.5723C128.238 45.2559 128.086 44.8926 128.086 44.4824C128.086 44.1426 128.449 43.1348 129.176 41.459C129.809 40.0059 130.295 38.9688 130.635 38.3477C130.939 37.7852 131.344 37.5039 131.848 37.5039C132.27 37.5039 132.627 37.668 132.92 37.9961C133.225 38.3125 133.377 38.6758 133.377 39.0859C133.377 39.3672 132.545 41.3711 130.881 45.0977C130.611 45.7305 130.189 46.0469 129.615 46.0469ZM170.941 15.2324C170.766 15.7246 170.678 16.4453 170.678 17.3945C170.678 17.7461 170.689 18.2676 170.713 18.959C170.736 19.6504 170.748 20.1719 170.748 20.5234C170.748 21.6953 170.643 23.4414 170.432 25.7617C170.232 28.082 170.133 29.8281 170.133 31C170.133 31.8906 170.197 33.2266 170.326 35.0078C170.455 36.7891 170.52 38.1309 170.52 39.0332C170.52 39.5137 170.355 39.918 170.027 40.2461C169.711 40.5742 169.312 40.7383 168.832 40.7383C168.363 40.7383 167.965 40.5742 167.637 40.2461C167.309 39.918 167.145 39.5137 167.145 39.0332C167.145 38.1309 167.08 36.7891 166.951 35.0078C166.822 33.2266 166.758 31.8906 166.758 31C166.758 30.1445 166.787 29.2773 166.846 28.3984C164.842 28.4336 162.363 28.7324 159.41 29.2949L152.027 30.7363C152.027 31.791 151.922 33.291 151.711 35.2363C151.5 37.1699 151.395 38.6699 151.395 39.7363C151.395 40.2168 151.23 40.6211 150.902 40.9492C150.586 41.2891 150.188 41.459 149.707 41.459C149.227 41.459 148.822 41.2891 148.494 40.9492C148.178 40.6211 148.02 40.2168 148.02 39.7363C148.02 38.4941 148.119 36.6426 148.318 34.1816C148.529 31.709 148.635 29.8516 148.635 28.6094C148.635 27.9648 148.611 26.9922 148.564 25.6914C148.518 24.3906 148.494 23.4121 148.494 22.7559C148.494 21.8301 148.553 20.4414 148.67 18.5898C148.787 16.7266 148.846 15.332 148.846 14.4062C148.846 13.9141 149.004 13.5039 149.32 13.1758C149.648 12.8477 150.053 12.6836 150.533 12.6836C151.014 12.6836 151.412 12.8477 151.729 13.1758C152.057 13.5039 152.221 13.9141 152.221 14.4062C152.221 15.3437 152.156 16.75 152.027 18.625C151.91 20.4883 151.852 21.8887 151.852 22.8262L151.957 27.2734L159.498 25.8496C162.51 25.2871 165.047 24.9941 167.109 24.9707C167.238 23.2949 167.303 20.7695 167.303 17.3945C167.303 16.5039 167.449 15.6016 167.742 14.6875C168.129 13.4336 168.674 12.8066 169.377 12.8066C169.822 12.8066 170.221 12.9707 170.572 13.2988C170.924 13.6152 171.1 14.0195 171.1 14.5117C171.1 14.6875 171.047 14.9277 170.941 15.2324ZM178.816 17.7461C178.254 17.7461 177.768 17.5469 177.357 17.1484C176.947 16.75 176.742 16.2695 176.742 15.707C176.742 15.1445 176.947 14.6641 177.357 14.2656C177.768 13.8672 178.254 13.668 178.816 13.668C179.379 13.668 179.859 13.8672 180.258 14.2656C180.668 14.6641 180.873 15.1445 180.873 15.707C180.873 16.2695 180.668 16.75 180.258 17.1484C179.859 17.5469 179.379 17.7461 178.816 17.7461ZM179.607 32.0195C179.607 32.7227 179.625 33.7773 179.66 35.1836C179.707 36.5781 179.73 37.627 179.73 38.3301C179.73 38.8457 179.572 39.2676 179.256 39.5957C178.939 39.9238 178.523 40.0879 178.008 40.0879C177.504 40.0879 177.088 39.9238 176.76 39.5957C176.443 39.2676 176.285 38.8457 176.285 38.3301C176.285 37.627 176.262 36.5781 176.215 35.1836C176.18 33.7773 176.162 32.7227 176.162 32.0195C176.162 30.918 176.221 29.5469 176.338 27.9062C176.455 26.2539 176.514 24.877 176.514 23.7754C176.514 23.248 176.672 22.8203 176.988 22.4922C177.316 22.1641 177.732 22 178.236 22C178.74 22 179.15 22.1641 179.467 22.4922C179.795 22.8203 179.959 23.248 179.959 23.7754C179.959 24.877 179.9 26.2539 179.783 27.9062C179.666 29.5469 179.607 30.918 179.607 32.0195ZM200.016 32.4238L199.611 38.3301C199.541 40.6738 199.301 42.5898 198.891 44.0781C198.363 45.9766 197.52 47.377 196.359 48.2793C194.953 49.3691 192.92 49.9141 190.26 49.9141C188.701 49.9141 187.395 49.8086 186.34 49.5977C184.863 49.3047 184.125 48.6953 184.125 47.7695C184.125 46.7266 184.635 46.2051 185.654 46.2051C186.076 46.2051 186.779 46.3047 187.764 46.5039C188.748 46.7148 189.838 46.8086 191.033 46.7852C193.283 46.75 194.836 45.6602 195.691 43.5156C196.254 42.0859 196.553 39.8887 196.588 36.9238C195.955 38.0957 195.199 38.9746 194.32 39.5605C193.453 40.1465 192.457 40.4395 191.332 40.4395C189.211 40.4395 187.482 39.7188 186.146 38.2773C184.822 36.8242 184.16 34.9434 184.16 32.6348C184.16 29.4707 185.068 26.9219 186.885 24.9883C188.76 22.9961 191.314 22 194.549 22C195.639 22 196.553 22.1406 197.291 22.4219C198.029 22.7031 198.592 23.125 198.979 23.6875C200.232 23.7227 200.859 24.4199 200.859 25.7793C200.859 26.6113 200.736 27.7246 200.49 29.1191C200.221 30.7363 200.062 31.8379 200.016 32.4238ZM194.373 24.8125C192.146 24.8125 190.424 25.5801 189.205 27.1152C188.115 28.498 187.57 30.2559 187.57 32.3887C187.57 34.0879 187.893 35.3652 188.537 36.2207C189.182 37.0762 190.148 37.5039 191.438 37.5039C192.621 37.5039 193.77 36.8359 194.883 35.5C195.891 34.2695 196.465 33.0508 196.605 31.8438C196.852 30.5781 197.115 28.5918 197.396 25.8848C196.928 25.5215 196.441 25.252 195.938 25.0762C195.434 24.9004 194.912 24.8125 194.373 24.8125ZM212.883 40.8086C210.234 40.8086 208.09 40.1465 206.449 38.8223C204.656 37.3574 203.76 35.3066 203.76 32.6699C203.76 29.623 204.498 27.0684 205.975 25.0059C207.58 22.7559 209.725 21.6309 212.408 21.6309C214.354 21.6309 215.941 21.959 217.172 22.6152C218.684 23.4238 219.439 24.666 219.439 26.3418C219.439 27.5137 218.777 28.5801 217.453 29.541C216.867 29.9629 215.625 30.6191 213.727 31.5098L207.012 34.6914C207.668 35.6641 208.482 36.3965 209.455 36.8887C210.439 37.3809 211.582 37.627 212.883 37.627C213.691 37.627 214.641 37.4746 215.73 37.1699C217.113 36.7832 218.004 36.2793 218.402 35.6582C218.801 35.0254 219.229 34.709 219.686 34.709C220.096 34.709 220.459 34.8672 220.775 35.1836C221.104 35.4883 221.268 35.8457 221.268 36.2559C221.268 37.5566 220.219 38.6758 218.121 39.6133C216.328 40.4102 214.582 40.8086 212.883 40.8086ZM212.408 24.7949C210.979 24.7949 209.789 25.3516 208.84 26.4648C207.891 27.5664 207.182 29.2305 206.713 31.457L212.109 28.8906C214.23 27.8594 215.742 26.9629 216.645 26.2012C215.637 25.2637 214.225 24.7949 212.408 24.7949ZM237.879 41.248C236.871 41.248 236.303 40.6973 236.174 39.5957L235.682 35.7461C235.518 34.375 235.436 33.0918 235.436 31.8965C235.436 31.5684 235.453 31.0117 235.488 30.2266C235.535 29.4414 235.559 28.8848 235.559 28.5566C235.559 26.0254 235.09 24.7598 234.152 24.7598C232.84 24.7598 231.586 25.5391 230.391 27.0977C229.312 28.5156 228.469 30.3086 227.859 32.4766C227.836 32.9336 227.783 33.5078 227.701 34.1992C227.631 34.7852 227.596 35.3535 227.596 35.9043C227.596 36.2559 227.631 36.7832 227.701 37.4863C227.771 38.1895 227.807 38.7168 227.807 39.0684C227.807 39.5957 227.643 40.0234 227.314 40.3516C226.998 40.6797 226.588 40.8438 226.084 40.8438C225.568 40.8438 225.152 40.6797 224.836 40.3516C224.52 40.0234 224.361 39.5957 224.361 39.0684C224.361 38.7168 224.32 38.1895 224.238 37.4863C224.168 36.7832 224.133 36.2559 224.133 35.9043C224.133 34.6973 224.215 33.0273 224.379 30.8945C224.555 28.75 224.643 27.0742 224.643 25.8672C224.643 25.4922 224.619 24.9355 224.572 24.1973C224.537 23.459 224.52 22.9023 224.52 22.5273C224.52 22.0234 224.684 21.6133 225.012 21.2969C225.352 20.9688 225.768 20.8047 226.26 20.8047C227.338 20.8047 227.93 21.5664 228.035 23.0898L228.088 25.1465C230.057 22.5215 232.078 21.209 234.152 21.209C236.027 21.209 237.334 22.0352 238.072 23.6875C238.576 24.7891 238.852 26.418 238.898 28.5742V30.3496L238.881 31.9844C238.881 32.957 239.004 34.2168 239.25 35.7637C239.508 37.2988 239.637 38.5469 239.637 39.5078C239.637 40.0234 239.467 40.4395 239.127 40.7559C238.799 41.084 238.383 41.248 237.879 41.248ZM246.598 17.7461C246.035 17.7461 245.549 17.5469 245.139 17.1484C244.729 16.75 244.523 16.2695 244.523 15.707C244.523 15.1445 244.729 14.6641 245.139 14.2656C245.549 13.8672 246.035 13.668 246.598 13.668C247.16 13.668 247.641 13.8672 248.039 14.2656C248.449 14.6641 248.654 15.1445 248.654 15.707C248.654 16.2695 248.449 16.75 248.039 17.1484C247.641 17.5469 247.16 17.7461 246.598 17.7461ZM247.389 32.0195C247.389 32.7227 247.406 33.7773 247.441 35.1836C247.488 36.5781 247.512 37.627 247.512 38.3301C247.512 38.8457 247.354 39.2676 247.037 39.5957C246.721 39.9238 246.305 40.0879 245.789 40.0879C245.285 40.0879 244.869 39.9238 244.541 39.5957C244.225 39.2676 244.066 38.8457 244.066 38.3301C244.066 37.627 244.043 36.5781 243.996 35.1836C243.961 33.7773 243.943 32.7227 243.943 32.0195C243.943 30.918 244.002 29.5469 244.119 27.9062C244.236 26.2539 244.295 24.877 244.295 23.7754C244.295 23.248 244.453 22.8203 244.77 22.4922C245.098 22.1641 245.514 22 246.018 22C246.521 22 246.932 22.1641 247.248 22.4922C247.576 22.8203 247.74 23.248 247.74 23.7754C247.74 24.877 247.682 26.2539 247.564 27.9062C247.447 29.5469 247.389 30.918 247.389 32.0195ZM265.195 26.4648C264.551 26.4648 264.1 26.248 263.842 25.8145C263.666 25.5098 263.514 24.877 263.385 23.916C262.506 24.1387 261.152 24.5488 259.324 25.1465C257.438 25.8965 256.488 26.8223 256.477 27.9238C256.828 28.0527 257.174 28.1465 257.514 28.2051C260.209 28.6855 262.213 29.3477 263.525 30.1914C265.436 31.4219 266.391 33.2031 266.391 35.5352C266.391 37.4453 265.564 38.8867 263.912 39.8594C262.541 40.6562 260.807 41.0547 258.709 41.0547C257.174 41.0547 255.709 40.7969 254.314 40.2812C252.51 39.625 251.607 38.7109 251.607 37.5391C251.607 37.0703 251.789 36.6602 252.152 36.3086C252.527 35.957 252.949 35.7812 253.418 35.7812C253.781 35.7812 254.25 36.0625 254.824 36.625C255.105 36.8945 255.738 37.1172 256.723 37.293C257.508 37.4336 258.17 37.5039 258.709 37.5039C259.693 37.5039 260.561 37.3867 261.311 37.1523C262.4 36.8125 262.945 36.2734 262.945 35.5352C262.945 33.9414 261.832 32.8633 259.605 32.3008L257.777 31.8965C256.219 31.5566 255.111 31.1582 254.455 30.7012C253.506 30.0449 253.031 29.0547 253.031 27.7305C253.031 25.2812 254.186 23.5352 256.494 22.4922C257.197 22.1758 258.322 21.8008 259.869 21.3672C261.416 20.9219 262.523 20.5469 263.191 20.2422C263.672 20.0312 264.193 19.9258 264.756 19.9258C265.26 19.9258 265.67 20.0898 265.986 20.418C266.314 20.7461 266.479 21.1738 266.479 21.7012C266.479 22.041 266.549 22.5391 266.689 23.1953C266.842 23.8516 266.918 24.3496 266.918 24.6895C266.918 25.2168 266.754 25.6445 266.426 25.9727C266.109 26.3008 265.699 26.4648 265.195 26.4648ZM273.439 46.0469C273.029 46.0469 272.672 45.8887 272.367 45.5723C272.062 45.2559 271.91 44.8926 271.91 44.4824C271.91 44.1426 272.273 43.1348 273 41.459C273.633 40.0059 274.119 38.9688 274.459 38.3477C274.764 37.7852 275.168 37.5039 275.672 37.5039C276.094 37.5039 276.451 37.668 276.744 37.9961C277.049 38.3125 277.201 38.6758 277.201 39.0859C277.201 39.3672 276.369 41.3711 274.705 45.0977C274.436 45.7305 274.014 46.0469 273.439 46.0469ZM307.805 24.4785C307.664 26.2012 307.594 27.9238 307.594 29.6465C307.594 33.5488 307.775 36.4961 308.139 38.4883C308.162 38.6523 308.174 38.7871 308.174 38.8926C308.174 39.3613 308.01 39.748 307.682 40.0527C307.354 40.3574 306.973 40.5098 306.539 40.5098C305.812 40.5098 305.279 39.9824 304.939 38.9277C304.096 39.5488 303.217 40.0176 302.303 40.334C301.4 40.6504 300.457 40.8086 299.473 40.8086C297.047 40.8086 295.037 40 293.443 38.3828C291.803 36.7305 290.982 34.6094 290.982 32.0195C290.982 28.8906 291.809 26.3828 293.461 24.4961C295.125 22.6094 297.281 21.666 299.93 21.666C301.289 21.666 302.338 21.877 303.076 22.2988L304.729 23.5117C304.893 18.5781 305.086 15.2559 305.309 13.5449C305.461 12.502 305.994 11.9805 306.908 11.9805C307.975 11.9805 308.508 12.5488 308.508 13.6855C308.508 15.3145 308.273 18.9121 307.805 24.4785ZM300 24.9355C298.031 24.9355 296.555 25.5215 295.57 26.6934C294.586 27.8535 294.094 29.6055 294.094 31.9492C294.094 33.4609 294.627 34.7617 295.693 35.8516C296.771 36.9414 298.031 37.4863 299.473 37.4863C300.457 37.4863 301.289 37.3047 301.969 36.9414C302.367 36.7305 303.018 36.2441 303.92 35.4824C304.096 35.3301 304.266 35.1484 304.43 34.9375L304.377 31.8965L304.395 29.8574L304.43 27.7832C303.984 26.834 303.393 26.125 302.654 25.6562C301.916 25.1758 301.031 24.9355 300 24.9355ZM326.508 41.1602C326.285 41.1602 325.881 40.9023 325.295 40.3867C324.768 39.9062 324.375 39.4785 324.117 39.1035C322.992 39.7129 322.002 40.1699 321.146 40.4746C320.291 40.791 319.576 40.9492 319.002 40.9492C316.26 40.9492 314.262 40.1758 313.008 38.6289C311.824 37.1758 311.232 34.9492 311.232 31.9492C311.232 29.1133 312.205 26.6875 314.15 24.6719C316.107 22.6562 318.439 21.6484 321.146 21.6484C322.166 21.6484 323.309 21.9121 324.574 22.4395C326.168 23.0957 326.965 23.8867 326.965 24.8125C326.965 25.1289 326.848 25.4102 326.613 25.6562C326.496 26.1016 326.402 26.834 326.332 27.8535C326.273 28.873 326.238 30.1797 326.227 31.7734C326.215 33.2266 326.314 34.375 326.525 35.2188C326.643 35.7344 327.012 36.7656 327.633 38.3125C327.715 38.5234 327.85 38.834 328.037 39.2441L328.143 39.543C328.143 40.0117 327.979 40.3984 327.65 40.7031C327.322 41.0078 326.941 41.1602 326.508 41.1602ZM322.852 28.9434C322.852 28.4395 322.881 27.8945 322.939 27.3086C323.01 26.7109 323.109 26.0781 323.238 25.4102C322.805 25.1875 322.43 25.0234 322.113 24.918C321.809 24.8125 321.562 24.7598 321.375 24.7598C319.559 24.7598 317.988 25.5039 316.664 26.9922C315.352 28.4688 314.695 30.1738 314.695 32.1074C314.695 34.0293 315.035 35.4707 315.715 36.4316C316.395 37.3926 317.414 37.873 318.773 37.873C319.898 37.873 320.854 37.668 321.639 37.2578C322.061 37.0352 322.652 36.5898 323.414 35.9219C323.039 32.8164 322.852 30.4902 322.852 28.9434ZM344.684 41.248C343.676 41.248 343.107 40.6973 342.979 39.5957L342.486 35.7461C342.322 34.375 342.24 33.0918 342.24 31.8965C342.24 31.5684 342.258 31.0117 342.293 30.2266C342.34 29.4414 342.363 28.8848 342.363 28.5566C342.363 26.0254 341.895 24.7598 340.957 24.7598C339.645 24.7598 338.391 25.5391 337.195 27.0977C336.117 28.5156 335.273 30.3086 334.664 32.4766C334.641 32.9336 334.588 33.5078 334.506 34.1992C334.436 34.7852 334.4 35.3535 334.4 35.9043C334.4 36.2559 334.436 36.7832 334.506 37.4863C334.576 38.1895 334.611 38.7168 334.611 39.0684C334.611 39.5957 334.447 40.0234 334.119 40.3516C333.803 40.6797 333.393 40.8438 332.889 40.8438C332.373 40.8438 331.957 40.6797 331.641 40.3516C331.324 40.0234 331.166 39.5957 331.166 39.0684C331.166 38.7168 331.125 38.1895 331.043 37.4863C330.973 36.7832 330.938 36.2559 330.938 35.9043C330.938 34.6973 331.02 33.0273 331.184 30.8945C331.359 28.75 331.447 27.0742 331.447 25.8672C331.447 25.4922 331.424 24.9355 331.377 24.1973C331.342 23.459 331.324 22.9023 331.324 22.5273C331.324 22.0234 331.488 21.6133 331.816 21.2969C332.156 20.9688 332.572 20.8047 333.064 20.8047C334.143 20.8047 334.734 21.5664 334.84 23.0898L334.893 25.1465C336.861 22.5215 338.883 21.209 340.957 21.209C342.832 21.209 344.139 22.0352 344.877 23.6875C345.381 24.7891 345.656 26.418 345.703 28.5742V30.3496L345.686 31.9844C345.686 32.957 345.809 34.2168 346.055 35.7637C346.312 37.2988 346.441 38.5469 346.441 39.5078C346.441 40.0234 346.271 40.4395 345.932 40.7559C345.604 41.084 345.188 41.248 344.684 41.248ZM386.924 41.459C386.291 41.459 385.77 41.1309 385.359 40.4746C385.008 39.9121 384.691 38.9746 384.41 37.6621L383.777 34.6387C383.297 32.7637 382.535 28.627 381.492 22.2285L377.977 32.8281L376.939 36.168C376.518 37.4922 376.078 38.5762 375.621 39.4199C375.129 40.3105 374.467 40.7559 373.635 40.7559C372.943 40.7559 372.398 40.3809 372 39.6309C371.742 39.1387 371.508 38.5117 371.297 37.75L370.787 35.7988C369.604 31.6621 368.561 27.2324 367.658 22.5098L367.025 25.6562L364.758 34.9375C364.664 36.0273 364.371 37.6387 363.879 39.7715C363.527 40.6855 362.947 41.1426 362.139 41.1426C361.564 41.1426 361.107 40.9375 360.768 40.5273C360.475 40.1758 360.328 39.7422 360.328 39.2266C360.328 37.2695 360.732 34.8672 361.541 32.0195L363.475 24.9355L364.494 19.3984C365.01 16.8086 365.555 15.1152 366.129 14.3184C366.598 13.6387 367.178 13.2988 367.869 13.2988C368.631 13.2988 369.199 13.7324 369.574 14.5996C370.031 15.6426 370.523 17.7695 371.051 20.9805C371.672 24.8359 372.639 29.0078 373.951 33.4961C375.686 28.9844 377.186 24.2852 378.451 19.3984L378.979 16.832C379.189 15.8008 379.465 14.9688 379.805 14.3359C380.262 13.4688 380.889 13.0352 381.686 13.0352C382.693 13.0352 383.461 14.0078 383.988 15.9531C384.176 16.6211 384.404 18.0039 384.674 20.1016C385.365 25.3984 386.227 29.9219 387.258 33.6719L388.119 36.6953C388.564 38.3125 388.787 39.3086 388.787 39.6836C388.787 40.1875 388.594 40.6094 388.207 40.9492C387.832 41.2891 387.404 41.459 386.924 41.459ZM406.928 29.7344C406.928 30.5781 406.934 31.8438 406.945 33.5312C406.957 35.2188 406.963 36.4844 406.963 37.3281C406.963 37.5859 406.98 37.9785 407.016 38.5059C407.062 39.0332 407.086 39.4258 407.086 39.6836C407.086 40.1875 406.916 40.5977 406.576 40.9141C406.236 41.2422 405.82 41.4062 405.328 41.4062C404.426 41.4062 403.852 40.8496 403.605 39.7363C402.141 40.498 400.453 40.8789 398.543 40.8789C397.008 40.8789 395.736 40.5391 394.729 39.8594C393.615 39.1094 392.953 38.0137 392.742 36.5723C392.285 33.4668 392.057 30.7012 392.057 28.2754C392.057 26.6699 392.232 24.8418 392.584 22.791C392.748 21.7715 393.305 21.2617 394.254 21.2617C394.758 21.2617 395.18 21.4258 395.52 21.7539C395.859 22.0703 396.029 22.4805 396.029 22.9844C396.029 23.5234 395.941 24.3848 395.766 25.5684C395.602 26.752 395.52 27.6543 395.52 28.2754C395.52 30.2324 395.584 31.9082 395.713 33.3027C395.842 34.6973 396.035 35.8164 396.293 36.6602C396.68 36.8711 397.061 37.0352 397.436 37.1523C397.811 37.2578 398.18 37.3105 398.543 37.3105C400.113 37.3105 401.771 37.0586 403.518 36.5547L403.5 32.9863L403.465 29.5762C403.465 27.0449 403.576 24.8477 403.799 22.9844C403.928 21.9062 404.496 21.3672 405.504 21.3672C406.008 21.3672 406.43 21.5312 406.77 21.8594C407.109 22.1875 407.268 22.5977 407.244 23.0898L406.928 29.7344ZM424.998 27.0098C424.916 28.4746 424.33 29.207 423.24 29.207C422.232 29.207 421.729 28.627 421.729 27.4668C421.729 27.2441 421.711 26.834 421.676 26.2363L421.623 24.7598C419.771 24.9824 418.289 25.5039 417.176 26.3242C416.133 27.0859 415.266 28.2344 414.574 29.7695L414.609 39.4023C414.609 40.5859 414.029 41.1777 412.869 41.1777C411.838 41.1777 411.322 40.5859 411.322 39.4023V27.0625C411.322 26.6758 411.334 26.0957 411.357 25.3223C411.393 24.5488 411.41 23.9688 411.41 23.582C411.41 22.3984 411.926 21.8066 412.957 21.8066C414.105 21.8066 414.686 22.7793 414.697 24.7246C416.947 22.5566 419.443 21.4727 422.186 21.4727C423.135 21.4727 423.844 21.8301 424.312 22.5449C424.781 23.2598 425.016 24.3379 425.016 25.7793C425.016 26.3887 425.01 26.7988 424.998 27.0098ZM442.348 41.1602C442.125 41.1602 441.721 40.9023 441.135 40.3867C440.607 39.9062 440.215 39.4785 439.957 39.1035C438.832 39.7129 437.842 40.1699 436.986 40.4746C436.131 40.791 435.416 40.9492 434.842 40.9492C432.1 40.9492 430.102 40.1758 428.848 38.6289C427.664 37.1758 427.072 34.9492 427.072 31.9492C427.072 29.1133 428.045 26.6875 429.99 24.6719C431.947 22.6562 434.279 21.6484 436.986 21.6484C438.006 21.6484 439.148 21.9121 440.414 22.4395C442.008 23.0957 442.805 23.8867 442.805 24.8125C442.805 25.1289 442.688 25.4102 442.453 25.6562C442.336 26.1016 442.242 26.834 442.172 27.8535C442.113 28.873 442.078 30.1797 442.066 31.7734C442.055 33.2266 442.154 34.375 442.365 35.2188C442.482 35.7344 442.852 36.7656 443.473 38.3125C443.555 38.5234 443.689 38.834 443.877 39.2441L443.982 39.543C443.982 40.0117 443.818 40.3984 443.49 40.7031C443.162 41.0078 442.781 41.1602 442.348 41.1602ZM438.691 28.9434C438.691 28.4395 438.721 27.8945 438.779 27.3086C438.85 26.7109 438.949 26.0781 439.078 25.4102C438.645 25.1875 438.27 25.0234 437.953 24.918C437.648 24.8125 437.402 24.7598 437.215 24.7598C435.398 24.7598 433.828 25.5039 432.504 26.9922C431.191 28.4688 430.535 30.1738 430.535 32.1074C430.535 34.0293 430.875 35.4707 431.555 36.4316C432.234 37.3926 433.254 37.873 434.613 37.873C435.738 37.873 436.693 37.668 437.479 37.2578C437.9 37.0352 438.492 36.5898 439.254 35.9219C438.879 32.8164 438.691 30.4902 438.691 28.9434ZM461.754 41.0898C460.922 41.0898 460.377 40.6445 460.119 39.7539C459.85 38.793 459.604 37.4277 459.381 35.6582C459.17 33.959 459.064 32.5645 459.064 31.4746C459.064 31.1699 459.076 30.707 459.1 30.0859C459.135 29.4648 459.152 29.002 459.152 28.6973C459.152 26.4941 458.602 25.3926 457.5 25.3926C456.012 25.3926 454.682 26.0664 453.51 27.4141C452.912 28.1055 452.092 29.4238 451.049 31.3691C451.049 35.834 450.861 38.4766 450.486 39.2969C450.158 40.0234 449.648 40.3867 448.957 40.3867C448.477 40.3867 448.055 40.2227 447.691 39.8945C447.328 39.5664 447.146 39.168 447.146 38.6992C447.146 38.5352 447.199 38.2773 447.305 37.9258C447.398 37.6328 447.463 36.7773 447.498 35.3594L447.551 32.7578L447.604 19.8379C447.686 18.3848 447.727 17.4062 447.727 16.9023C447.727 16.3047 447.668 15.7422 447.551 15.2148C447.445 14.6758 447.393 14.1191 447.393 13.5449C447.393 13.0527 447.562 12.6484 447.902 12.332C448.242 12.0039 448.658 11.8398 449.15 11.8398C450.111 11.8398 450.674 12.3555 450.838 13.3867C451.025 14.5234 451.119 15.5488 451.119 16.4629C451.119 17.6934 451.078 18.9766 450.996 20.3125C450.926 21.5898 450.896 22.873 450.908 24.1621L450.926 25.709C451.887 24.4199 452.912 23.459 454.002 22.8262C455.104 22.1816 456.27 21.8594 457.5 21.8594C459.445 21.8594 460.781 22.4922 461.508 23.7578C462.023 24.6484 462.316 26.1484 462.387 28.2578L462.527 31.6152L462.879 35.2715C463.043 36.6426 463.242 37.8496 463.477 38.8926C463.523 39.0918 463.547 39.2617 463.547 39.4023C463.547 39.8828 463.371 40.2812 463.02 40.5977C462.668 40.9258 462.246 41.0898 461.754 41.0898Z" fill="#F0D800"/>
<g filter="url(#filter0_d_39_2)">
<path d="M40.7344 104.599C38.6836 104.599 37.1683 103.516 36.1885 101.352C35.7327 100.326 35.277 99.7109 34.8213 99.5059C34.4795 99.3464 33.5794 99.2666 32.1211 99.2666C29.25 99.2666 25.9346 101.5 22.1748 105.966C16.9111 112.209 14.2793 118.054 14.2793 123.5C14.2793 125.984 15.111 128.114 16.7744 129.892C18.4378 131.669 20.4316 132.558 22.7559 132.558C25.0117 132.558 27.3018 131.965 29.626 130.78C30.4463 130.347 32.1781 129.231 34.8213 127.431C36.5986 126.246 37.943 125.653 38.8545 125.653C40.2217 125.653 41.3838 126.155 42.3408 127.157C43.2295 128.091 43.6738 129.162 43.6738 130.37C43.6738 131.715 43.0814 132.888 41.8965 133.891C35.6302 139.177 29.25 141.82 22.7559 141.82C17.6289 141.82 13.2995 139.952 9.76758 136.215C6.39518 132.615 4.70898 128.376 4.70898 123.5C4.70898 115.867 8.0472 108.074 14.7236 100.121C20.3975 93.3763 26.1966 90.0039 32.1211 90.0039C33.1237 90.0039 34.0238 90.0381 34.8213 90.1064C35.6416 90.1748 36.3594 90.2773 36.9746 90.4141C37.9772 89.4342 39.1849 88.9443 40.5977 88.9443C42.9219 88.9443 44.3574 90.2773 44.9043 92.9434C45.2917 94.8574 45.4854 97.0905 45.4854 99.6426C45.4854 100.782 45.1549 101.819 44.4941 102.753C43.6283 103.983 42.375 104.599 40.7344 104.599ZM89.0645 142.025C87.2643 141.957 85.4528 139.838 83.6299 135.668C82.4222 132.979 81.3854 129.88 80.5195 126.371C78.8333 126.622 76.0762 126.872 72.248 127.123C68.6478 127.374 65.8906 127.67 63.9766 128.012C62.9284 130.518 61.1055 134.289 58.5078 139.325C57.5052 140.966 56.1152 141.786 54.3379 141.786C53.0846 141.786 51.9567 141.365 50.9541 140.521C49.9515 139.656 49.4502 138.562 49.4502 137.24C49.4502 136.078 51.1136 132.136 54.4404 125.414C54.1214 124.708 53.9847 124.047 54.0303 123.432C54.1214 122.338 55.2266 121.483 57.3457 120.868C60.5814 115.263 64.1816 109.452 68.1465 103.437C73.8431 94.8005 77.3522 90.4824 78.6738 90.4824C81.1803 90.4824 82.8551 91.9977 83.6982 95.0283C84.154 97.4665 84.8717 101.124 85.8516 106C87.2415 112.562 88.9391 120.071 90.9443 128.524C91.1038 129.162 91.6849 130.666 92.6875 133.036C93.5078 134.996 93.918 136.465 93.918 137.445C93.918 138.767 93.4167 139.872 92.4141 140.761C91.4342 141.649 90.3177 142.071 89.0645 142.025ZM76.3154 106.957C74.5381 110.01 72.0885 114.169 68.9668 119.433C69.9922 119.205 71.5872 119.022 73.752 118.886C76.304 118.726 77.9105 118.601 78.5713 118.51C78.0244 115.548 77.2725 111.697 76.3154 106.957ZM141.838 100.019C140.061 100.019 137.292 99.8932 133.532 99.6426C129.909 99.3919 127.141 99.278 125.227 99.3008C125.318 101.898 125.625 106.524 126.149 113.178C126.628 119.057 126.867 123.705 126.867 127.123C126.867 127.898 126.947 129.049 127.106 130.575C127.266 132.102 127.346 133.253 127.346 134.027C127.346 135.736 126.981 137.274 126.252 138.642C125.318 140.396 123.985 141.273 122.253 141.273C121 141.273 119.895 140.875 118.938 140.077C117.867 139.188 117.331 138.072 117.331 136.728C117.331 136.409 117.388 135.93 117.502 135.292C117.616 134.631 117.673 134.13 117.673 133.788C117.673 132.74 117.593 131.156 117.434 129.037C117.297 126.918 117.229 125.323 117.229 124.252C117.229 121.199 116.989 117.063 116.511 111.845C115.964 105.852 115.645 101.716 115.554 99.4375H113.776C108.695 99.4375 104.662 99.0729 101.677 98.3438C99.1475 97.7285 97.8828 96.236 97.8828 93.8662C97.8828 92.7041 98.293 91.6559 99.1133 90.7217C100.07 89.6051 101.324 89.1038 102.873 89.2178C103.671 89.2633 105.482 89.457 108.308 89.7988C110.563 90.0495 112.386 90.1748 113.776 90.1748C115.166 90.1748 117.24 90.152 119.997 90.1064C122.777 90.0609 124.862 90.0381 126.252 90.0381C127.984 90.0381 130.581 90.1634 134.045 90.4141C137.508 90.6419 140.106 90.7559 141.838 90.7559C143.205 90.7559 144.344 91.2002 145.256 92.0889C146.19 92.9775 146.657 94.0713 146.657 95.3701C146.657 96.6689 146.19 97.7741 145.256 98.6855C144.344 99.5742 143.205 100.019 141.838 100.019ZM184.187 97.1816C183.731 97.1816 183.252 97.1133 182.751 96.9766C179.06 95.974 175.471 95.4727 171.984 95.4727C170.275 95.4727 168.441 95.6094 166.481 95.8828C164.522 96.1562 162.437 96.5664 160.227 97.1133C160.227 100.144 160.124 104.644 159.919 110.614C161.195 110.523 165.65 110.102 173.283 109.35C177.635 108.917 180.393 108.7 181.555 108.7C182.899 108.7 184.05 109.133 185.007 109.999C185.964 110.842 186.442 111.97 186.442 113.383C186.442 116.094 184.995 117.632 182.102 117.997C180.279 118.134 177.556 118.362 173.933 118.681C170.697 119.045 165.821 119.49 159.304 120.014C159.144 122.908 159.064 125.243 159.064 127.021C159.064 131.487 159.326 134.027 159.851 134.643C160.101 134.939 161.537 135.087 164.157 135.087C165.57 135.087 167.701 135.053 170.549 134.984C173.397 134.916 175.528 134.882 176.94 134.882C177.396 134.882 178.068 134.813 178.957 134.677C179.846 134.54 180.507 134.472 180.939 134.472C182.261 134.472 183.389 134.848 184.323 135.6C185.394 136.443 185.93 137.628 185.93 139.154C185.93 141.706 184.597 143.233 181.931 143.734C179.652 144.167 174.924 144.384 167.746 144.384C160.318 144.384 155.476 143.381 153.22 141.376C150.736 139.166 149.494 134.381 149.494 127.021C149.494 123.967 149.711 119.387 150.144 113.28C150.599 107.151 150.827 102.571 150.827 99.54C150.827 98.7425 150.713 97.569 150.485 96.0195C150.257 94.4473 150.144 93.2624 150.144 92.4648C150.144 89.0013 151.739 87.2695 154.929 87.2695C155.931 87.2695 156.854 87.5544 157.697 88.124C160.34 87.4632 162.847 86.9733 165.217 86.6543C167.609 86.3125 169.865 86.1416 171.984 86.1416C177.727 86.1416 182.318 86.8024 185.759 88.124C187.855 88.9215 188.903 90.3685 188.903 92.4648C188.903 93.6497 188.493 94.6979 187.673 95.6094C186.761 96.6576 185.599 97.1816 184.187 97.1816ZM228.518 141.41C227.287 141.41 226.159 140.932 225.134 139.975C218.229 133.503 210.642 129.014 202.37 126.508C202.621 133.139 202.746 136.819 202.746 137.548C202.746 138.847 202.29 139.952 201.379 140.863C200.467 141.752 199.328 142.196 197.961 142.196C196.594 142.196 195.454 141.752 194.543 140.863C193.632 139.952 193.176 138.847 193.176 137.548C193.176 135.839 193.199 133.287 193.244 129.892C193.29 126.474 193.312 123.91 193.312 122.201L193.381 94.6182C193.381 93.137 193.825 91.7926 194.714 90.585C195.876 89.0355 197.482 88.3405 199.533 88.5C205.07 88.9102 207.907 89.1266 208.044 89.1494C211.234 89.5368 213.946 90.3001 216.179 91.4395C225.909 96.3385 230.773 102.411 230.773 109.657C230.773 112.642 229.748 115.285 227.697 117.587C225.669 119.866 222.616 121.791 218.537 123.363C224.576 126.736 229.121 130.176 232.175 133.686C232.972 134.597 233.371 135.611 233.371 136.728C233.371 138.004 232.893 139.109 231.936 140.043C230.979 140.954 229.839 141.41 228.518 141.41ZM206.608 98.4121C206.426 98.3893 205.093 98.2982 202.609 98.1387V116.288C203.179 116.311 203.68 116.322 204.113 116.322C209.696 116.322 213.832 115.627 216.521 114.237C217.683 113.645 218.742 112.859 219.699 111.879C220.679 110.899 221.169 110.159 221.169 109.657C221.169 107.105 219.551 104.644 216.315 102.274C213.239 100.041 210.004 98.7539 206.608 98.4121ZM267.585 100.6C266.4 100.6 263.153 100.281 257.844 99.6426C257.525 103.835 257.365 109.407 257.365 116.356L257.331 131.703C260.362 131.635 263.449 131.601 266.594 131.601C267.961 131.601 269.089 132.056 269.978 132.968C270.889 133.879 271.345 134.973 271.345 136.249C271.345 137.525 270.889 138.619 269.978 139.53C269.089 140.419 267.961 140.863 266.594 140.863C265.318 140.863 263.404 140.897 260.852 140.966C258.299 141.011 256.385 141.034 255.109 141.034C253.605 141.034 251.35 141.228 248.342 141.615C245.334 142.025 243.078 142.23 241.574 142.23C240.207 142.23 239.068 141.786 238.156 140.897C237.268 139.986 236.823 138.892 236.823 137.616C236.823 136.34 237.268 135.246 238.156 134.335C239.068 133.424 240.207 132.968 241.574 132.968C243.124 132.968 245.163 132.797 247.692 132.455C247.647 129.766 247.624 124.617 247.624 117.006C247.624 110.808 247.852 104.895 248.308 99.2666L240.891 99.4717C239.523 99.4717 238.373 99.0273 237.438 98.1387C236.527 97.25 236.071 96.1449 236.071 94.8232C236.071 93.4788 236.527 92.3851 237.438 91.542C238.282 90.7673 239.318 90.3229 240.549 90.209C242.554 90.0267 246.04 89.9355 251.008 89.9355C255.474 89.9355 261.228 90.4141 268.269 91.3711C271.071 91.7585 272.473 93.3307 272.473 96.0879C272.473 97.5462 271.903 98.6969 270.764 99.54C269.829 100.246 268.77 100.6 267.585 100.6ZM327.194 132.592C327.194 133.731 327.001 135.531 326.613 137.992C326.158 140.932 324.494 142.401 321.623 142.401C320.028 142.401 318.228 141.501 316.223 139.701C307.45 131.794 297.549 120.709 286.521 106.444C286.384 112.369 286.315 116.003 286.315 117.348C286.315 119.148 286.35 121.859 286.418 125.482C286.509 129.105 286.555 131.817 286.555 133.617C286.555 140.339 284.914 143.7 281.633 143.7C279.969 143.7 278.636 143.188 277.634 142.162C276.745 141.251 276.301 140.146 276.301 138.847C276.301 137.935 276.369 136.557 276.506 134.711C276.665 132.865 276.745 131.487 276.745 130.575C276.745 129.231 276.791 127.214 276.882 124.525C276.973 121.837 277.019 119.82 277.019 118.476C277.019 117.04 276.984 114.875 276.916 111.981C276.848 109.088 276.813 106.923 276.813 105.487C276.813 104.12 276.677 102.081 276.403 99.3691C276.13 96.6576 275.993 94.6182 275.993 93.251C275.993 91.8838 276.574 90.6647 277.736 89.5938C278.921 88.5228 280.266 87.9873 281.77 87.9873C283.456 87.9873 285.324 89.4456 287.375 92.3623C297.72 107.128 307.928 119.171 318 128.49C318.023 127.761 318.034 126.029 318.034 123.295C318.034 112.061 317.92 104.485 317.692 100.565C317.647 99.9046 317.499 98.6742 317.248 96.874C317.02 95.279 316.906 94.0257 316.906 93.1143C316.906 89.9697 318.57 88.3975 321.896 88.3975C325.611 88.3975 327.468 94.1283 327.468 105.59C327.468 105.84 327.445 107.641 327.399 110.99C327.263 122.566 327.194 129.766 327.194 132.592ZM375.729 120.902C374.18 127.693 371.058 133.127 366.364 137.206C361.602 141.308 356.019 143.358 349.616 143.358C343.555 143.358 339.009 141.763 335.979 138.573C332.948 135.36 331.433 130.552 331.433 124.149C331.433 118.316 332.868 112.335 335.739 106.205C338.61 100.076 342.302 95.1081 346.813 91.3027C349.981 88.6367 353.376 87.3037 356.999 87.3037C359.209 87.3037 362.217 88.1012 366.022 89.6963C370.534 91.5876 372.79 93.6042 372.79 95.7461C372.79 96.9766 372.323 98.0817 371.389 99.0615C370.454 100.019 369.304 100.497 367.937 100.497C367.253 100.497 365.738 99.859 363.391 98.583C361.066 97.2842 358.936 96.6348 356.999 96.6348C354.948 96.6348 352.18 98.8451 348.693 103.266C343.612 109.691 341.071 116.653 341.071 124.149C341.071 127.955 341.63 130.541 342.746 131.908C343.931 133.344 346.221 134.062 349.616 134.062C353.103 134.062 356.167 133.07 358.811 131.088C361.613 128.992 363.687 125.938 365.031 121.928C359.745 122.338 355.142 123.42 351.223 125.175C350.516 125.494 349.81 125.653 349.104 125.653C347.691 125.653 346.517 125.129 345.583 124.081C344.74 123.147 344.318 122.087 344.318 120.902C344.318 117.416 348.443 114.978 356.691 113.588C361.34 112.813 366.763 112.426 372.961 112.426C374.328 112.426 375.467 112.87 376.379 113.759C377.313 114.647 377.78 115.741 377.78 117.04C377.78 118.703 377.097 119.991 375.729 120.902ZM448.19 144.213C446.664 144.213 445.399 143.461 444.396 141.957C443.713 140.818 442.688 139.097 441.32 136.796C436.74 140.556 431.716 142.436 426.247 142.436C421.667 142.436 417.736 141.08 414.455 138.368C410.969 135.52 409.226 131.897 409.226 127.499C409.226 123.261 410.935 119.581 414.353 116.459C415.446 115.434 419.024 112.984 425.085 109.11C423.763 105.465 423.103 102.263 423.103 99.5059C423.103 97.0449 424.151 94.4928 426.247 91.8496C428.503 88.9785 430.975 87.543 433.664 87.543C436.763 87.543 439.304 88.5342 441.286 90.5166C443.177 92.4079 444.123 94.7207 444.123 97.4551C444.123 102.742 441.411 107.424 435.988 111.503C437.583 114.739 439.338 117.849 441.252 120.834L442.38 115.468C443.155 113.303 444.453 112.221 446.276 112.221C447.621 112.221 448.703 112.847 449.523 114.101C450.23 115.172 450.583 116.368 450.583 117.689C450.583 121.928 449.466 125.995 447.233 129.892C450.902 135.315 452.736 138.71 452.736 140.077C452.736 141.262 452.269 142.242 451.335 143.017C450.401 143.814 449.353 144.213 448.19 144.213ZM433.664 95.9854C433.026 96.0537 432.502 96.498 432.092 97.3184C431.75 98.0247 431.579 98.7425 431.579 99.4717C431.579 99.7907 431.796 100.668 432.229 102.104C432.707 103.699 432.958 104.576 432.98 104.735C433.732 103.983 434.462 103.015 435.168 101.83C435.965 100.508 436.364 99.4717 436.364 98.7197C436.364 97.6943 436.239 96.9993 435.988 96.6348C435.601 96.0879 434.826 95.8714 433.664 95.9854ZM428.947 116.391C426.577 117.895 424.219 119.398 421.872 120.902C419.32 122.908 418.044 125.106 418.044 127.499C418.044 129.436 418.864 131.02 420.505 132.25C422.077 133.435 423.991 134.027 426.247 134.027C430.075 134.027 433.47 132.569 436.433 129.652C435.043 127.579 432.548 123.158 428.947 116.391ZM514.396 139.667C509.087 141.649 502.377 142.641 494.265 142.641C492.897 142.641 491.667 142.071 490.573 140.932C489.502 139.792 488.967 138.573 488.967 137.274V101.044C488.898 99.4945 488.841 97.945 488.796 96.3955C488.728 94.641 488.785 93.1598 488.967 91.9521C489.286 89.8102 491.28 88.5114 494.948 88.0557C496.68 87.5544 499.551 87.3037 503.562 87.3037C507.868 87.3037 511.993 88.6937 515.935 91.4736C520.56 94.7093 522.873 98.7539 522.873 103.607C522.873 106.228 522.395 108.438 521.438 110.238C520.686 111.697 519.375 113.257 517.507 114.921C519.717 115.992 521.677 117.61 523.386 119.774C525.323 122.19 526.291 124.594 526.291 126.986C526.291 130.017 524.639 132.888 521.335 135.6C519.125 137.4 516.812 138.756 514.396 139.667ZM503.562 96.5664C500.622 96.5664 498.856 96.5892 498.264 96.6348L498.298 103.881L498.264 111.059C500.337 111.309 501.898 111.389 502.946 111.298C509.919 110.751 513.405 108.188 513.405 103.607C513.405 101.99 512.38 100.429 510.329 98.9248C508.21 97.3525 505.954 96.5664 503.562 96.5664ZM507.561 120.731C505.487 120.731 502.388 120.652 498.264 120.492V133.275C502.183 133.07 506.433 132.318 511.013 131.02C515.023 129.88 517.006 128.65 516.96 127.328C516.892 125.574 515.604 124.013 513.098 122.646C511.138 121.552 509.292 120.914 507.561 120.731ZM566.247 97.1816C565.791 97.1816 565.313 97.1133 564.812 96.9766C561.12 95.974 557.531 95.4727 554.045 95.4727C552.336 95.4727 550.502 95.6094 548.542 95.8828C546.582 96.1562 544.497 96.5664 542.287 97.1133C542.287 100.144 542.185 104.644 541.979 110.614C543.256 110.523 547.71 110.102 555.344 109.35C559.696 108.917 562.453 108.7 563.615 108.7C564.96 108.7 566.11 109.133 567.067 109.999C568.024 110.842 568.503 111.97 568.503 113.383C568.503 116.094 567.056 117.632 564.162 117.997C562.339 118.134 559.616 118.362 555.993 118.681C552.757 119.045 547.881 119.49 541.364 120.014C541.205 122.908 541.125 125.243 541.125 127.021C541.125 131.487 541.387 134.027 541.911 134.643C542.162 134.939 543.597 135.087 546.218 135.087C547.631 135.087 549.761 135.053 552.609 134.984C555.458 134.916 557.588 134.882 559.001 134.882C559.457 134.882 560.129 134.813 561.018 134.677C561.906 134.54 562.567 134.472 563 134.472C564.322 134.472 565.45 134.848 566.384 135.6C567.455 136.443 567.99 137.628 567.99 139.154C567.99 141.706 566.657 143.233 563.991 143.734C561.713 144.167 556.984 144.384 549.807 144.384C542.378 144.384 537.536 143.381 535.28 141.376C532.797 139.166 531.555 134.381 531.555 127.021C531.555 123.967 531.771 119.387 532.204 113.28C532.66 107.151 532.888 102.571 532.888 99.54C532.888 98.7425 532.774 97.569 532.546 96.0195C532.318 94.4473 532.204 93.2624 532.204 92.4648C532.204 89.0013 533.799 87.2695 536.989 87.2695C537.992 87.2695 538.915 87.5544 539.758 88.124C542.401 87.4632 544.908 86.9733 547.277 86.6543C549.67 86.3125 551.926 86.1416 554.045 86.1416C559.787 86.1416 564.379 86.8024 567.819 88.124C569.916 88.9215 570.964 90.3685 570.964 92.4648C570.964 93.6497 570.554 94.6979 569.733 95.6094C568.822 96.6576 567.66 97.1816 566.247 97.1816ZM626.13 132.592C626.13 133.731 625.936 135.531 625.549 137.992C625.093 140.932 623.43 142.401 620.559 142.401C618.964 142.401 617.163 141.501 615.158 139.701C606.385 131.794 596.485 120.709 585.456 106.444C585.319 112.369 585.251 116.003 585.251 117.348C585.251 119.148 585.285 121.859 585.354 125.482C585.445 129.105 585.49 131.817 585.49 133.617C585.49 140.339 583.85 143.7 580.568 143.7C578.905 143.7 577.572 143.188 576.569 142.162C575.681 141.251 575.236 140.146 575.236 138.847C575.236 137.935 575.305 136.557 575.441 134.711C575.601 132.865 575.681 131.487 575.681 130.575C575.681 129.231 575.726 127.214 575.817 124.525C575.909 121.837 575.954 119.82 575.954 118.476C575.954 117.04 575.92 114.875 575.852 111.981C575.783 109.088 575.749 106.923 575.749 105.487C575.749 104.12 575.612 102.081 575.339 99.3691C575.065 96.6576 574.929 94.6182 574.929 93.251C574.929 91.8838 575.51 90.6647 576.672 89.5938C577.857 88.5228 579.201 87.9873 580.705 87.9873C582.391 87.9873 584.26 89.4456 586.311 92.3623C596.656 107.128 606.864 119.171 616.936 128.49C616.958 127.761 616.97 126.029 616.97 123.295C616.97 112.061 616.856 104.485 616.628 100.565C616.582 99.9046 616.434 98.6742 616.184 96.874C615.956 95.279 615.842 94.0257 615.842 93.1143C615.842 89.9697 617.505 88.3975 620.832 88.3975C624.546 88.3975 626.403 94.1283 626.403 105.59C626.403 105.84 626.381 107.641 626.335 110.99C626.198 122.566 626.13 129.766 626.13 132.592ZM673.332 100.019C671.555 100.019 668.786 99.8932 665.026 99.6426C661.403 99.3919 658.635 99.278 656.721 99.3008C656.812 101.898 657.119 106.524 657.644 113.178C658.122 119.057 658.361 123.705 658.361 127.123C658.361 127.898 658.441 129.049 658.601 130.575C658.76 132.102 658.84 133.253 658.84 134.027C658.84 135.736 658.475 137.274 657.746 138.642C656.812 140.396 655.479 141.273 653.747 141.273C652.494 141.273 651.389 140.875 650.432 140.077C649.361 139.188 648.825 138.072 648.825 136.728C648.825 136.409 648.882 135.93 648.996 135.292C649.11 134.631 649.167 134.13 649.167 133.788C649.167 132.74 649.087 131.156 648.928 129.037C648.791 126.918 648.723 125.323 648.723 124.252C648.723 121.199 648.483 117.063 648.005 111.845C647.458 105.852 647.139 101.716 647.048 99.4375H645.271C640.189 99.4375 636.156 99.0729 633.171 98.3438C630.642 97.7285 629.377 96.236 629.377 93.8662C629.377 92.7041 629.787 91.6559 630.607 90.7217C631.564 89.6051 632.818 89.1038 634.367 89.2178C635.165 89.2633 636.976 89.457 639.802 89.7988C642.058 90.0495 643.881 90.1748 645.271 90.1748C646.66 90.1748 648.734 90.152 651.491 90.1064C654.271 90.0609 656.356 90.0381 657.746 90.0381C659.478 90.0381 662.076 90.1634 665.539 90.4141C669.003 90.6419 671.6 90.7559 673.332 90.7559C674.699 90.7559 675.839 91.2002 676.75 92.0889C677.684 92.9775 678.151 94.0713 678.151 95.3701C678.151 96.6689 677.684 97.7741 676.75 98.6855C675.839 99.5742 674.699 100.019 673.332 100.019ZM704.641 143.085C697.896 143.085 692.154 141.148 687.414 137.274C682.355 133.127 679.826 127.761 679.826 121.176C679.826 113.428 682.253 106.365 687.106 99.9844C692.552 92.8066 699.411 89.2178 707.683 89.2178C715.635 89.2178 721.594 91.0407 725.559 94.6865C729.523 98.3324 731.506 103.812 731.506 111.127C731.506 118.874 729.273 125.893 724.807 132.182C719.657 139.451 712.935 143.085 704.641 143.085ZM707.683 98.4805C702.601 98.4805 698.249 100.941 694.626 105.863C691.231 110.466 689.533 115.57 689.533 121.176C689.533 124.958 691.003 128.035 693.942 130.404C696.768 132.683 700.334 133.822 704.641 133.822C709.654 133.822 713.835 131.361 717.185 126.439C720.261 121.951 721.799 116.846 721.799 111.127C721.799 106.342 720.728 103.015 718.586 101.146C716.535 99.3691 712.901 98.4805 707.683 98.4805ZM45.7246 240.025C43.9245 239.957 42.113 237.838 40.29 233.668C39.0824 230.979 38.0456 227.88 37.1797 224.371C35.4935 224.622 32.7363 224.872 28.9082 225.123C25.3079 225.374 22.5508 225.67 20.6367 226.012C19.5885 228.518 17.7656 232.289 15.168 237.325C14.1654 238.966 12.7754 239.786 10.998 239.786C9.74479 239.786 8.61686 239.365 7.61426 238.521C6.61165 237.656 6.11035 236.562 6.11035 235.24C6.11035 234.078 7.77376 230.136 11.1006 223.414C10.7816 222.708 10.6449 222.047 10.6904 221.432C10.7816 220.338 11.8867 219.483 14.0059 218.868C17.2415 213.263 20.8418 207.452 24.8066 201.437C30.5033 192.8 34.0124 188.482 35.334 188.482C37.8405 188.482 39.5153 189.998 40.3584 193.028C40.8141 195.466 41.5319 199.124 42.5117 204C43.9017 210.562 45.5993 218.071 47.6045 226.524C47.764 227.162 48.3451 228.666 49.3477 231.036C50.168 232.996 50.5781 234.465 50.5781 235.445C50.5781 236.767 50.0768 237.872 49.0742 238.761C48.0944 239.649 46.9779 240.071 45.7246 240.025ZM32.9756 204.957C31.1982 208.01 28.7487 212.169 25.627 217.433C26.6523 217.205 28.2474 217.022 30.4121 216.886C32.9642 216.726 34.5706 216.601 35.2314 216.51C34.6846 213.548 33.9326 209.697 32.9756 204.957ZM89.8164 237.701C87.1276 238.886 82.9691 239.946 77.3408 240.88C72.1911 241.746 67.9642 242.179 64.6602 242.179C59.0775 242.179 56.2861 239.729 56.2861 234.83C56.2861 235.217 56.514 231.606 56.9697 223.995C57.5622 214.106 57.8584 203.1 57.8584 190.978C57.8584 189.679 58.3027 188.574 59.1914 187.662C60.1029 186.751 61.2422 186.295 62.6094 186.295C63.9766 186.295 65.1159 186.751 66.0273 187.662C66.9388 188.574 67.3945 189.679 67.3945 190.978C67.3945 203.123 67.0869 214.311 66.4717 224.542C66.2666 226.365 66.0501 229.156 65.8223 232.916C71.2227 232.825 78.1497 231.503 86.6035 228.951C87.1276 228.792 87.6289 228.712 88.1074 228.712C89.543 228.712 90.7051 229.236 91.5938 230.284C92.3913 231.218 92.79 232.267 92.79 233.429C92.79 235.388 91.7988 236.812 89.8164 237.701ZM135.48 240.025C133.68 239.957 131.869 237.838 130.046 233.668C128.838 230.979 127.801 227.88 126.936 224.371C125.249 224.622 122.492 224.872 118.664 225.123C115.064 225.374 112.307 225.67 110.393 226.012C109.344 228.518 107.521 232.289 104.924 237.325C103.921 238.966 102.531 239.786 100.754 239.786C99.5007 239.786 98.3727 239.365 97.3701 238.521C96.3675 237.656 95.8662 236.562 95.8662 235.24C95.8662 234.078 97.5296 230.136 100.856 223.414C100.537 222.708 100.401 222.047 100.446 221.432C100.537 220.338 101.643 219.483 103.762 218.868C106.997 213.263 110.598 207.452 114.562 201.437C120.259 192.8 123.768 188.482 125.09 188.482C127.596 188.482 129.271 189.998 130.114 193.028C130.57 195.466 131.288 199.124 132.268 204C133.658 210.562 135.355 218.071 137.36 226.524C137.52 227.162 138.101 228.666 139.104 231.036C139.924 232.996 140.334 234.465 140.334 235.445C140.334 236.767 139.833 237.872 138.83 238.761C137.85 239.649 136.734 240.071 135.48 240.025ZM122.731 204.957C120.954 208.01 118.505 212.169 115.383 217.433C116.408 217.205 118.003 217.022 120.168 216.886C122.72 216.726 124.326 216.601 124.987 216.51C124.44 213.548 123.688 209.697 122.731 204.957Z" fill="white"/>
<path d="M215.222 197.027C214.812 197.027 214.162 196.993 213.273 196.925C212.385 196.834 211.667 196.788 211.12 196.788H208.454C208.431 196.401 208.42 197.21 208.42 199.215C208.42 215.53 207.269 227.413 204.968 234.864C203.282 240.356 200.217 243.102 195.773 243.102C191.535 243.102 187.342 241.643 183.195 238.727C178.501 235.468 176.154 231.64 176.154 227.242C176.154 223.688 177.761 221.91 180.974 221.91C184.187 221.91 185.793 223.665 185.793 227.174C185.793 228.518 186.944 229.965 189.245 231.515C191.569 233.041 193.745 233.805 195.773 233.805C196.594 233.805 197.186 232.289 197.551 229.259C197.642 228.53 197.893 224.986 198.303 218.629C198.645 213.434 198.815 206.962 198.815 199.215C198.815 198.896 198.781 198.155 198.713 196.993L197.927 197.027C196.924 197.073 195.58 197.062 193.894 196.993C191.866 196.902 190.521 196.856 189.86 196.856C188.516 196.856 187.377 196.446 186.442 195.626C185.44 194.737 184.938 193.587 184.938 192.174C184.938 189.075 186.978 187.525 191.057 187.525C191.831 187.525 192.982 187.56 194.509 187.628C196.035 187.674 197.175 187.696 197.927 187.696C199.362 187.696 201.504 187.617 204.353 187.457C207.224 187.298 209.377 187.218 210.812 187.218C216.919 187.218 219.973 188.915 219.973 192.311C219.973 193.495 219.562 194.555 218.742 195.489C217.808 196.515 216.634 197.027 215.222 197.027ZM258.767 195.182C258.311 195.182 257.832 195.113 257.331 194.977C253.64 193.974 250.051 193.473 246.564 193.473C244.855 193.473 243.021 193.609 241.062 193.883C239.102 194.156 237.017 194.566 234.807 195.113C234.807 198.144 234.704 202.644 234.499 208.614C235.775 208.523 240.23 208.102 247.863 207.35C252.215 206.917 254.973 206.7 256.135 206.7C257.479 206.7 258.63 207.133 259.587 207.999C260.544 208.842 261.022 209.97 261.022 211.383C261.022 214.094 259.576 215.632 256.682 215.997C254.859 216.134 252.136 216.362 248.513 216.681C245.277 217.045 240.401 217.49 233.884 218.014C233.724 220.908 233.645 223.243 233.645 225.021C233.645 229.487 233.907 232.027 234.431 232.643C234.681 232.939 236.117 233.087 238.737 233.087C240.15 233.087 242.281 233.053 245.129 232.984C247.977 232.916 250.108 232.882 251.521 232.882C251.976 232.882 252.648 232.813 253.537 232.677C254.426 232.54 255.087 232.472 255.52 232.472C256.841 232.472 257.969 232.848 258.903 233.6C259.974 234.443 260.51 235.628 260.51 237.154C260.51 239.706 259.177 241.233 256.511 241.734C254.232 242.167 249.504 242.384 242.326 242.384C234.898 242.384 230.056 241.381 227.8 239.376C225.316 237.166 224.074 232.381 224.074 225.021C224.074 221.967 224.291 217.387 224.724 211.28C225.179 205.151 225.407 200.571 225.407 197.54C225.407 196.743 225.293 195.569 225.065 194.02C224.838 192.447 224.724 191.262 224.724 190.465C224.724 187.001 226.319 185.27 229.509 185.27C230.511 185.27 231.434 185.554 232.277 186.124C234.921 185.463 237.427 184.973 239.797 184.654C242.189 184.312 244.445 184.142 246.564 184.142C252.307 184.142 256.898 184.802 260.339 186.124C262.435 186.922 263.483 188.368 263.483 190.465C263.483 191.65 263.073 192.698 262.253 193.609C261.341 194.658 260.179 195.182 258.767 195.182ZM278.728 219.928C278.34 219.928 277.383 219.848 275.856 219.688C275.72 222.879 275.651 228.119 275.651 235.411C275.651 236.619 275.23 237.656 274.387 238.521C273.544 239.387 272.473 239.82 271.174 239.82C269.875 239.82 268.793 239.387 267.927 238.521C267.084 237.656 266.662 236.619 266.662 235.411V225.875C266.662 222.343 266.89 217.114 267.346 210.187C267.779 203.146 268.007 197.893 268.029 194.43C268.052 188.505 269.715 185.668 273.02 185.919C273.794 185.714 274.865 185.566 276.232 185.475C277.6 185.361 279.263 185.304 281.223 185.304C285.689 185.304 289.882 186.751 293.801 189.645C298.153 192.88 300.329 196.822 300.329 201.471C300.329 207.304 298.016 211.941 293.391 215.382C289.289 218.412 284.401 219.928 278.728 219.928ZM280.437 194.122C279.707 194.122 279.058 194.133 278.488 194.156C277.941 194.156 277.474 194.179 277.087 194.225C277.087 195.296 277.076 196.902 277.053 199.044C277.007 201.573 276.791 205.515 276.403 210.87C277.565 211.052 278.34 211.144 278.728 211.144C282.282 211.144 285.233 210.3 287.58 208.614C290.087 206.814 291.34 204.433 291.34 201.471C291.34 199.534 290.166 197.813 287.819 196.31C285.563 194.851 283.103 194.122 280.437 194.122ZM344.66 240.025C342.86 239.957 341.049 237.838 339.226 233.668C338.018 230.979 336.981 227.88 336.115 224.371C334.429 224.622 331.672 224.872 327.844 225.123C324.243 225.374 321.486 225.67 319.572 226.012C318.524 228.518 316.701 232.289 314.104 237.325C313.101 238.966 311.711 239.786 309.934 239.786C308.68 239.786 307.552 239.365 306.55 238.521C305.547 237.656 305.046 236.562 305.046 235.24C305.046 234.078 306.709 230.136 310.036 223.414C309.717 222.708 309.58 222.047 309.626 221.432C309.717 220.338 310.822 219.483 312.941 218.868C316.177 213.263 319.777 207.452 323.742 201.437C329.439 192.8 332.948 188.482 334.27 188.482C336.776 188.482 338.451 189.998 339.294 193.028C339.75 195.466 340.467 199.124 341.447 204C342.837 210.562 344.535 218.071 346.54 226.524C346.7 227.162 347.281 228.666 348.283 231.036C349.104 232.996 349.514 234.465 349.514 235.445C349.514 236.767 349.012 237.872 348.01 238.761C347.03 239.649 345.913 240.071 344.66 240.025ZM331.911 204.957C330.134 208.01 327.684 212.169 324.562 217.433C325.588 217.205 327.183 217.022 329.348 216.886C331.9 216.726 333.506 216.601 334.167 216.51C333.62 213.548 332.868 209.697 331.911 204.957ZM407.175 230.592C407.175 231.731 406.981 233.531 406.594 235.992C406.138 238.932 404.475 240.401 401.604 240.401C400.008 240.401 398.208 239.501 396.203 237.701C387.43 229.794 377.53 218.709 366.501 204.444C366.364 210.369 366.296 214.003 366.296 215.348C366.296 217.148 366.33 219.859 366.398 223.482C366.49 227.105 366.535 229.817 366.535 231.617C366.535 238.339 364.895 241.7 361.613 241.7C359.95 241.7 358.617 241.188 357.614 240.162C356.726 239.251 356.281 238.146 356.281 236.847C356.281 235.935 356.35 234.557 356.486 232.711C356.646 230.865 356.726 229.487 356.726 228.575C356.726 227.231 356.771 225.214 356.862 222.525C356.953 219.837 356.999 217.82 356.999 216.476C356.999 215.04 356.965 212.875 356.896 209.981C356.828 207.088 356.794 204.923 356.794 203.487C356.794 202.12 356.657 200.081 356.384 197.369C356.11 194.658 355.974 192.618 355.974 191.251C355.974 189.884 356.555 188.665 357.717 187.594C358.902 186.523 360.246 185.987 361.75 185.987C363.436 185.987 365.305 187.446 367.355 190.362C377.701 205.128 387.909 217.171 397.98 226.49C398.003 225.761 398.015 224.029 398.015 221.295C398.015 210.061 397.901 202.485 397.673 198.565C397.627 197.905 397.479 196.674 397.229 194.874C397.001 193.279 396.887 192.026 396.887 191.114C396.887 187.97 398.55 186.397 401.877 186.397C405.591 186.397 407.448 192.128 407.448 203.59C407.448 203.84 407.425 205.641 407.38 208.99C407.243 220.566 407.175 227.766 407.175 230.592ZM455.71 218.902C454.16 225.693 451.039 231.127 446.345 235.206C441.582 239.308 436 241.358 429.597 241.358C423.535 241.358 418.99 239.763 415.959 236.573C412.928 233.36 411.413 228.552 411.413 222.149C411.413 216.316 412.849 210.335 415.72 204.205C418.591 198.076 422.282 193.108 426.794 189.303C429.961 186.637 433.356 185.304 436.979 185.304C439.19 185.304 442.198 186.101 446.003 187.696C450.515 189.588 452.771 191.604 452.771 193.746C452.771 194.977 452.303 196.082 451.369 197.062C450.435 198.019 449.284 198.497 447.917 198.497C447.233 198.497 445.718 197.859 443.371 196.583C441.047 195.284 438.916 194.635 436.979 194.635C434.929 194.635 432.16 196.845 428.674 201.266C423.592 207.691 421.052 214.653 421.052 222.149C421.052 225.955 421.61 228.541 422.727 229.908C423.911 231.344 426.201 232.062 429.597 232.062C433.083 232.062 436.148 231.07 438.791 229.088C441.594 226.992 443.667 223.938 445.012 219.928C439.725 220.338 435.122 221.42 431.203 223.175C430.497 223.494 429.79 223.653 429.084 223.653C427.671 223.653 426.498 223.129 425.563 222.081C424.72 221.147 424.299 220.087 424.299 218.902C424.299 215.416 428.423 212.978 436.672 211.588C441.32 210.813 446.743 210.426 452.941 210.426C454.309 210.426 455.448 210.87 456.359 211.759C457.294 212.647 457.761 213.741 457.761 215.04C457.761 216.703 457.077 217.991 455.71 218.902Z" fill="#AE1919"/>
</g>
<defs>
<filter id="filter0_d_39_2" x="0.708984" y="86.1416" width="734.797" height="164.96" filterUnits="userSpaceOnUse" color-interpolation-filters="sRGB">
<feFlood flood-opacity="0" result="BackgroundImageFix"/>
<feColorMatrix in="SourceAlpha" type="matrix" values="0 0 0 0 0 0 0 0 0 0 0 0 0 0 0 0 0 0 127 0" result="hardAlpha"/>
<feOffset dy="4"/>
<feGaussianBlur stdDeviation="2"/>
<feComposite in2="hardAlpha" operator="out"/>
<feColorMatrix type="matrix" values="0 0 0 0 0 0 0 0 0 0 0 0 0 0 0 0 0 0 0.25 0"/>
<feBlend mode="normal" in2="BackgroundImageFix" result="effect1_dropShadow_39_2"/>
<feBlend mode="normal" in="SourceGraphic" in2="effect1_dropShadow_39_2" result="shape"/>
</filter>
</defs>
</svg>
