<svg width="459" height="39" viewBox="0 0 459 39" fill="none" xmlns="http://www.w3.org/2000/svg">
<path d="M25.0879 25.0977C25.0879 25.6602 24.9941 26.5977 24.8066 27.9102C24.6191 29.0938 23.9922 29.6855 22.9258 29.6855C22.2812 29.6855 21.5137 29.2637 20.623 28.4199C15.8535 23.9082 10.3809 17.3984 4.20508 8.89062L4.11719 12.8809L4.06445 16.8887C4.06445 17.8613 4.08203 19.3203 4.11719 21.2656C4.16406 23.2109 4.1875 24.6758 4.1875 25.6602C4.1875 28.8125 3.57812 30.3887 2.35938 30.3887C1.71484 30.3887 1.20508 30.1836 0.830078 29.7734C0.490234 29.4102 0.320312 28.9766 0.320312 28.4727C0.320312 27.9805 0.355469 27.2363 0.425781 26.2402C0.507812 25.2441 0.548828 24.5 0.548828 24.0078C0.548828 23.2812 0.572266 22.1973 0.619141 20.7559C0.666016 19.3027 0.689453 18.2129 0.689453 17.4863C0.689453 16.7129 0.671875 15.5469 0.636719 13.9883C0.601562 12.418 0.583984 11.2461 0.583984 10.4727C0.583984 9.73438 0.513672 8.63867 0.373047 7.18555C0.232422 5.7207 0.162109 4.61914 0.162109 3.88086C0.162109 3.3418 0.390625 2.84961 0.847656 2.4043C1.31641 1.95898 1.84375 1.73633 2.42969 1.73633C3.05078 1.73633 3.81836 2.41602 4.73242 3.77539C7.65039 8.14648 10.2754 11.7793 12.6074 14.6738C15.3848 18.1074 18.4316 21.3887 21.748 24.5176C21.7832 24.0137 21.7832 23.2695 21.748 22.2852L21.6953 20.0703C21.6953 14.9258 21.4961 10.8301 21.0977 7.7832C21.0508 7.47852 20.8926 6.86328 20.623 5.9375C20.3887 5.14062 20.2715 4.51953 20.2715 4.07422C20.2715 2.71484 20.8926 2.03516 22.1348 2.03516C24.1738 2.03516 25.1934 5.83789 25.1934 13.4434C25.1934 14.7441 25.1758 16.6895 25.1406 19.2793C25.1055 21.8574 25.0879 23.7969 25.0879 25.0977ZM32.4883 6.74609C31.9258 6.74609 31.4395 6.54688 31.0293 6.14844C30.6191 5.75 30.4141 5.26953 30.4141 4.70703C30.4141 4.14453 30.6191 3.66406 31.0293 3.26562C31.4395 2.86719 31.9258 2.66797 32.4883 2.66797C33.0508 2.66797 33.5312 2.86719 33.9297 3.26562C34.3398 3.66406 34.5449 4.14453 34.5449 4.70703C34.5449 5.26953 34.3398 5.75 33.9297 6.14844C33.5312 6.54688 33.0508 6.74609 32.4883 6.74609ZM33.2793 21.0195C33.2793 21.7227 33.2969 22.7773 33.332 24.1836C33.3789 25.5781 33.4023 26.627 33.4023 27.3301C33.4023 27.8457 33.2441 28.2676 32.9277 28.5957C32.6113 28.9238 32.1953 29.0879 31.6797 29.0879C31.1758 29.0879 30.7598 28.9238 30.4316 28.5957C30.1152 28.2676 29.957 27.8457 29.957 27.3301C29.957 26.627 29.9336 25.5781 29.8867 24.1836C29.8516 22.7773 29.834 21.7227 29.834 21.0195C29.834 19.918 29.8926 18.5469 30.0098 16.9062C30.127 15.2539 30.1855 13.877 30.1855 12.7754C30.1855 12.248 30.3438 11.8203 30.6602 11.4922C30.9883 11.1641 31.4043 11 31.9082 11C32.4121 11 32.8223 11.1641 33.1387 11.4922C33.4668 11.8203 33.6309 12.248 33.6309 12.7754C33.6309 13.877 33.5723 15.2539 33.4551 16.9062C33.3379 18.5469 33.2793 19.918 33.2793 21.0195ZM53.8633 29.7207C53.2188 29.7207 52.7207 29.3809 52.3691 28.7012C51.7598 27.5176 50.8398 26.1172 49.6094 24.5L46.498 20.2637C45.8184 20.8027 44.7637 21.5586 43.334 22.5312C43.2051 24.3477 43.1406 26.1172 43.1406 27.8398C43.1406 28.3672 42.9766 28.7949 42.6484 29.123C42.332 29.4512 41.9219 29.6152 41.418 29.6152C40.2344 29.6152 39.6426 28.8184 39.6426 27.2246C39.6426 26.252 39.707 24.7988 39.8359 22.8652C39.9766 20.9199 40.0469 19.4609 40.0469 18.4883C40.0469 16.707 40.0703 14.6738 40.1172 12.3887C40.1758 10.0918 40.2051 8.06445 40.2051 6.30664C40.2051 5.7793 40.1758 5.1582 40.1172 4.44336C40.0703 3.72852 40.0469 3.10742 40.0469 2.58008C40.0469 2.05273 40.2051 1.625 40.5215 1.29688C40.8496 0.96875 41.2656 0.804688 41.7695 0.804688C42.2734 0.804688 42.6836 0.96875 43 1.29688C43.3281 1.625 43.4922 2.05273 43.4922 2.58008C43.4922 3.11914 43.5215 3.75781 43.5801 4.49609C43.6387 5.22266 43.668 5.85547 43.668 6.39453L43.5449 12.0547C43.4863 14.0938 43.4688 16.1328 43.4922 18.1719C45.0859 16.9531 46.6211 15.6172 48.0977 14.1641L51.9648 10.1738C52.3516 9.77539 52.7676 9.57617 53.2129 9.57617C53.6699 9.57617 54.0801 9.75781 54.4434 10.1211C54.8184 10.4844 55.0059 10.9062 55.0059 11.3867C55.0059 11.7852 54.8359 12.1777 54.4961 12.5645C53.0547 14.252 51.2793 16.0625 49.1699 17.9961L53.002 23.2168C54.7949 25.666 55.6914 27.2598 55.6914 27.998C55.6914 28.4668 55.5039 28.8711 55.1289 29.2109C54.7656 29.5508 54.3438 29.7207 53.8633 29.7207ZM80.9863 30.459C80.0254 30.459 79.4629 29.9492 79.2988 28.9297C79.0879 27.6406 78.877 25.8242 78.666 23.4805L78.0684 18.0312C77.9512 17.2227 77.752 16.4316 77.4707 15.6582C77.0723 14.6035 76.6387 14.0762 76.1699 14.0762C75.7363 14.0762 74.9277 14.4453 73.7441 15.1836C72.6191 15.8633 71.8809 16.4082 71.5293 16.8184C71.5176 17.9199 71.5469 19.0215 71.6172 20.123L72.1445 24.8164C72.3672 26.668 72.4785 28.1973 72.4785 29.4043C72.4785 29.9199 72.3145 30.3418 71.9863 30.6699C71.6699 31.0098 71.2598 31.1797 70.7559 31.1797C70.252 31.1797 69.8359 31.0098 69.5078 30.6699C69.1914 30.3418 69.0332 29.9199 69.0332 29.4043C69.0332 27.9863 68.8867 25.8945 68.5938 23.1289C68.3125 20.3516 68.1719 18.2539 68.1719 16.8359C68.1719 15.5938 67.9961 14.627 67.6445 13.9355C66.8242 14.3105 65.9922 14.9199 65.1484 15.7637L63.0742 18.084C62.8867 18.3652 62.5879 18.7344 62.1777 19.1914C62.1777 19.8945 62.1133 20.9316 61.9844 22.3027C61.8555 23.6738 61.791 24.6875 61.791 25.3438C61.791 25.6953 61.8438 26.1875 61.9492 26.8203C62.0664 27.4531 62.125 27.9102 62.125 28.1914C62.125 28.6719 61.9434 29.0762 61.5801 29.4043C61.2285 29.7324 60.8125 29.8965 60.332 29.8965C59.0078 29.8965 58.3457 28.3906 58.3457 25.3789C58.3457 24.6758 58.4102 23.627 58.5391 22.2324C58.668 20.8379 58.7324 19.7891 58.7324 19.0859C58.7324 18.4648 58.6738 17.5332 58.5566 16.291C58.4512 15.0488 58.3984 14.1113 58.3984 13.4785C58.3984 10.8184 58.9961 9.48828 60.1914 9.48828C60.6484 9.48828 61.0645 9.6875 61.4395 10.0859C61.8262 10.4844 62.0195 10.918 62.0195 11.3867C62.0195 11.6094 61.9902 11.9551 61.9316 12.4238C61.873 12.8926 61.8438 13.25 61.8438 13.4961L61.8789 15.3418C62.4883 14.0879 63.3848 12.957 64.5684 11.9492C65.752 10.9297 66.7598 10.4199 67.5918 10.4199C69.4316 10.4199 70.6973 11.334 71.3887 13.1621C72.0332 12.3066 72.8008 11.668 73.6914 11.2461C74.582 10.8125 75.6016 10.5957 76.75 10.5957C78.707 10.5957 80.043 11.6504 80.7578 13.7598C80.8984 14.1816 81.1387 15.8281 81.4785 18.6992C81.8066 20.7148 82.2285 24.0723 82.7441 28.7715C82.7793 29.2402 82.6211 29.6387 82.2695 29.9668C81.918 30.2949 81.4902 30.459 80.9863 30.459ZM100.375 30.1602C100.152 30.1602 99.748 29.9023 99.1621 29.3867C98.6348 28.9062 98.2422 28.4785 97.9844 28.1035C96.8594 28.7129 95.8691 29.1699 95.0137 29.4746C94.1582 29.791 93.4434 29.9492 92.8691 29.9492C90.127 29.9492 88.1289 29.1758 86.875 27.6289C85.6914 26.1758 85.0996 23.9492 85.0996 20.9492C85.0996 18.1133 86.0723 15.6875 88.0176 13.6719C89.9746 11.6562 92.3066 10.6484 95.0137 10.6484C96.0332 10.6484 97.1758 10.9121 98.4414 11.4395C100.035 12.0957 100.832 12.8867 100.832 13.8125C100.832 14.1289 100.715 14.4102 100.48 14.6562C100.363 15.1016 100.27 15.834 100.199 16.8535C100.141 17.873 100.105 19.1797 100.094 20.7734C100.082 22.2266 100.182 23.375 100.393 24.2188C100.51 24.7344 100.879 25.7656 101.5 27.3125C101.582 27.5234 101.717 27.834 101.904 28.2441L102.01 28.543C102.01 29.0117 101.846 29.3984 101.518 29.7031C101.189 30.0078 100.809 30.1602 100.375 30.1602ZM96.7188 17.9434C96.7188 17.4395 96.748 16.8945 96.8066 16.3086C96.877 15.7109 96.9766 15.0781 97.1055 14.4102C96.6719 14.1875 96.2969 14.0234 95.9805 13.918C95.6758 13.8125 95.4297 13.7598 95.2422 13.7598C93.4258 13.7598 91.8555 14.5039 90.5312 15.9922C89.2188 17.4688 88.5625 19.1738 88.5625 21.1074C88.5625 23.0293 88.9023 24.4707 89.582 25.4316C90.2617 26.3926 91.2812 26.873 92.6406 26.873C93.7656 26.873 94.7207 26.668 95.5059 26.2578C95.9277 26.0352 96.5195 25.5898 97.2812 24.9219C96.9062 21.8164 96.7188 19.4902 96.7188 17.9434ZM116.828 14.0234C116.582 14.0234 116.289 14.0117 115.949 13.9883C115.621 13.9648 115.334 13.9531 115.088 13.9531C114.818 13.9531 114.021 14.041 112.697 14.2168L113.031 24.6055L113.049 25.3789L113.066 26.2754C113.113 28.8418 112.498 30.125 111.221 30.125C110.752 30.125 110.342 29.9727 109.99 29.668C109.65 29.3633 109.48 28.9824 109.48 28.5254C109.48 28.0801 109.498 27.4121 109.533 26.5215C109.568 25.6309 109.586 24.9629 109.586 24.5176L109.234 14.252C108.379 14.2168 107.078 14.1172 105.332 13.9531C104.289 13.8125 103.768 13.2324 103.768 12.2129C103.768 11.6973 103.926 11.2695 104.242 10.9297C104.559 10.5898 104.963 10.4199 105.455 10.4199L109.146 10.7188C109.146 10.1211 109.117 9.32422 109.059 8.32812C109.012 7.32031 108.988 6.59375 108.988 6.14844C108.988 5.65625 109.158 5.25195 109.498 4.93555C109.838 4.60742 110.254 4.44336 110.746 4.44336C111.801 4.44336 112.416 5.30469 112.592 7.02734C112.627 7.46094 112.645 7.98242 112.645 8.5918L112.609 9.61133L112.592 10.7012C114.045 10.5137 114.877 10.4199 115.088 10.4199C116.307 10.4199 117.104 10.4785 117.479 10.5957C118.193 10.8301 118.551 11.3809 118.551 12.248C118.551 12.7637 118.387 13.1914 118.059 13.5312C117.742 13.8594 117.332 14.0234 116.828 14.0234ZM124.615 35.0469C124.205 35.0469 123.848 34.8887 123.543 34.5723C123.238 34.2559 123.086 33.8926 123.086 33.4824C123.086 33.1426 123.449 32.1348 124.176 30.459C124.809 29.0059 125.295 27.9688 125.635 27.3477C125.939 26.7852 126.344 26.5039 126.848 26.5039C127.27 26.5039 127.627 26.668 127.92 26.9961C128.225 27.3125 128.377 27.6758 128.377 28.0859C128.377 28.3672 127.545 30.3711 125.881 34.0977C125.611 34.7305 125.189 35.0469 124.615 35.0469ZM165.941 4.23242C165.766 4.72461 165.678 5.44531 165.678 6.39453C165.678 6.74609 165.689 7.26758 165.713 7.95898C165.736 8.65039 165.748 9.17188 165.748 9.52344C165.748 10.6953 165.643 12.4414 165.432 14.7617C165.232 17.082 165.133 18.8281 165.133 20C165.133 20.8906 165.197 22.2266 165.326 24.0078C165.455 25.7891 165.52 27.1309 165.52 28.0332C165.52 28.5137 165.355 28.918 165.027 29.2461C164.711 29.5742 164.312 29.7383 163.832 29.7383C163.363 29.7383 162.965 29.5742 162.637 29.2461C162.309 28.918 162.145 28.5137 162.145 28.0332C162.145 27.1309 162.08 25.7891 161.951 24.0078C161.822 22.2266 161.758 20.8906 161.758 20C161.758 19.1445 161.787 18.2773 161.846 17.3984C159.842 17.4336 157.363 17.7324 154.41 18.2949L147.027 19.7363C147.027 20.791 146.922 22.291 146.711 24.2363C146.5 26.1699 146.395 27.6699 146.395 28.7363C146.395 29.2168 146.23 29.6211 145.902 29.9492C145.586 30.2891 145.188 30.459 144.707 30.459C144.227 30.459 143.822 30.2891 143.494 29.9492C143.178 29.6211 143.02 29.2168 143.02 28.7363C143.02 27.4941 143.119 25.6426 143.318 23.1816C143.529 20.709 143.635 18.8516 143.635 17.6094C143.635 16.9648 143.611 15.9922 143.564 14.6914C143.518 13.3906 143.494 12.4121 143.494 11.7559C143.494 10.8301 143.553 9.44141 143.67 7.58984C143.787 5.72656 143.846 4.33203 143.846 3.40625C143.846 2.91406 144.004 2.50391 144.32 2.17578C144.648 1.84766 145.053 1.68359 145.533 1.68359C146.014 1.68359 146.412 1.84766 146.729 2.17578C147.057 2.50391 147.221 2.91406 147.221 3.40625C147.221 4.34375 147.156 5.75 147.027 7.625C146.91 9.48828 146.852 10.8887 146.852 11.8262L146.957 16.2734L154.498 14.8496C157.51 14.2871 160.047 13.9941 162.109 13.9707C162.238 12.2949 162.303 9.76953 162.303 6.39453C162.303 5.50391 162.449 4.60156 162.742 3.6875C163.129 2.43359 163.674 1.80664 164.377 1.80664C164.822 1.80664 165.221 1.9707 165.572 2.29883C165.924 2.61523 166.1 3.01953 166.1 3.51172C166.1 3.6875 166.047 3.92773 165.941 4.23242ZM173.816 6.74609C173.254 6.74609 172.768 6.54688 172.357 6.14844C171.947 5.75 171.742 5.26953 171.742 4.70703C171.742 4.14453 171.947 3.66406 172.357 3.26562C172.768 2.86719 173.254 2.66797 173.816 2.66797C174.379 2.66797 174.859 2.86719 175.258 3.26562C175.668 3.66406 175.873 4.14453 175.873 4.70703C175.873 5.26953 175.668 5.75 175.258 6.14844C174.859 6.54688 174.379 6.74609 173.816 6.74609ZM174.607 21.0195C174.607 21.7227 174.625 22.7773 174.66 24.1836C174.707 25.5781 174.73 26.627 174.73 27.3301C174.73 27.8457 174.572 28.2676 174.256 28.5957C173.939 28.9238 173.523 29.0879 173.008 29.0879C172.504 29.0879 172.088 28.9238 171.76 28.5957C171.443 28.2676 171.285 27.8457 171.285 27.3301C171.285 26.627 171.262 25.5781 171.215 24.1836C171.18 22.7773 171.162 21.7227 171.162 21.0195C171.162 19.918 171.221 18.5469 171.338 16.9062C171.455 15.2539 171.514 13.877 171.514 12.7754C171.514 12.248 171.672 11.8203 171.988 11.4922C172.316 11.1641 172.732 11 173.236 11C173.74 11 174.15 11.1641 174.467 11.4922C174.795 11.8203 174.959 12.248 174.959 12.7754C174.959 13.877 174.9 15.2539 174.783 16.9062C174.666 18.5469 174.607 19.918 174.607 21.0195ZM195.016 21.4238L194.611 27.3301C194.541 29.6738 194.301 31.5898 193.891 33.0781C193.363 34.9766 192.52 36.377 191.359 37.2793C189.953 38.3691 187.92 38.9141 185.26 38.9141C183.701 38.9141 182.395 38.8086 181.34 38.5977C179.863 38.3047 179.125 37.6953 179.125 36.7695C179.125 35.7266 179.635 35.2051 180.654 35.2051C181.076 35.2051 181.779 35.3047 182.764 35.5039C183.748 35.7148 184.838 35.8086 186.033 35.7852C188.283 35.75 189.836 34.6602 190.691 32.5156C191.254 31.0859 191.553 28.8887 191.588 25.9238C190.955 27.0957 190.199 27.9746 189.32 28.5605C188.453 29.1465 187.457 29.4395 186.332 29.4395C184.211 29.4395 182.482 28.7188 181.146 27.2773C179.822 25.8242 179.16 23.9434 179.16 21.6348C179.16 18.4707 180.068 15.9219 181.885 13.9883C183.76 11.9961 186.314 11 189.549 11C190.639 11 191.553 11.1406 192.291 11.4219C193.029 11.7031 193.592 12.125 193.979 12.6875C195.232 12.7227 195.859 13.4199 195.859 14.7793C195.859 15.6113 195.736 16.7246 195.49 18.1191C195.221 19.7363 195.062 20.8379 195.016 21.4238ZM189.373 13.8125C187.146 13.8125 185.424 14.5801 184.205 16.1152C183.115 17.498 182.57 19.2559 182.57 21.3887C182.57 23.0879 182.893 24.3652 183.537 25.2207C184.182 26.0762 185.148 26.5039 186.438 26.5039C187.621 26.5039 188.77 25.8359 189.883 24.5C190.891 23.2695 191.465 22.0508 191.605 20.8438C191.852 19.5781 192.115 17.5918 192.396 14.8848C191.928 14.5215 191.441 14.252 190.938 14.0762C190.434 13.9004 189.912 13.8125 189.373 13.8125ZM207.883 29.8086C205.234 29.8086 203.09 29.1465 201.449 27.8223C199.656 26.3574 198.76 24.3066 198.76 21.6699C198.76 18.623 199.498 16.0684 200.975 14.0059C202.58 11.7559 204.725 10.6309 207.408 10.6309C209.354 10.6309 210.941 10.959 212.172 11.6152C213.684 12.4238 214.439 13.666 214.439 15.3418C214.439 16.5137 213.777 17.5801 212.453 18.541C211.867 18.9629 210.625 19.6191 208.727 20.5098L202.012 23.6914C202.668 24.6641 203.482 25.3965 204.455 25.8887C205.439 26.3809 206.582 26.627 207.883 26.627C208.691 26.627 209.641 26.4746 210.73 26.1699C212.113 25.7832 213.004 25.2793 213.402 24.6582C213.801 24.0254 214.229 23.709 214.686 23.709C215.096 23.709 215.459 23.8672 215.775 24.1836C216.104 24.4883 216.268 24.8457 216.268 25.2559C216.268 26.5566 215.219 27.6758 213.121 28.6133C211.328 29.4102 209.582 29.8086 207.883 29.8086ZM207.408 13.7949C205.979 13.7949 204.789 14.3516 203.84 15.4648C202.891 16.5664 202.182 18.2305 201.713 20.457L207.109 17.8906C209.23 16.8594 210.742 15.9629 211.645 15.2012C210.637 14.2637 209.225 13.7949 207.408 13.7949ZM232.879 30.248C231.871 30.248 231.303 29.6973 231.174 28.5957L230.682 24.7461C230.518 23.375 230.436 22.0918 230.436 20.8965C230.436 20.5684 230.453 20.0117 230.488 19.2266C230.535 18.4414 230.559 17.8848 230.559 17.5566C230.559 15.0254 230.09 13.7598 229.152 13.7598C227.84 13.7598 226.586 14.5391 225.391 16.0977C224.312 17.5156 223.469 19.3086 222.859 21.4766C222.836 21.9336 222.783 22.5078 222.701 23.1992C222.631 23.7852 222.596 24.3535 222.596 24.9043C222.596 25.2559 222.631 25.7832 222.701 26.4863C222.771 27.1895 222.807 27.7168 222.807 28.0684C222.807 28.5957 222.643 29.0234 222.314 29.3516C221.998 29.6797 221.588 29.8438 221.084 29.8438C220.568 29.8438 220.152 29.6797 219.836 29.3516C219.52 29.0234 219.361 28.5957 219.361 28.0684C219.361 27.7168 219.32 27.1895 219.238 26.4863C219.168 25.7832 219.133 25.2559 219.133 24.9043C219.133 23.6973 219.215 22.0273 219.379 19.8945C219.555 17.75 219.643 16.0742 219.643 14.8672C219.643 14.4922 219.619 13.9355 219.572 13.1973C219.537 12.459 219.52 11.9023 219.52 11.5273C219.52 11.0234 219.684 10.6133 220.012 10.2969C220.352 9.96875 220.768 9.80469 221.26 9.80469C222.338 9.80469 222.93 10.5664 223.035 12.0898L223.088 14.1465C225.057 11.5215 227.078 10.209 229.152 10.209C231.027 10.209 232.334 11.0352 233.072 12.6875C233.576 13.7891 233.852 15.418 233.898 17.5742V19.3496L233.881 20.9844C233.881 21.957 234.004 23.2168 234.25 24.7637C234.508 26.2988 234.637 27.5469 234.637 28.5078C234.637 29.0234 234.467 29.4395 234.127 29.7559C233.799 30.084 233.383 30.248 232.879 30.248ZM241.598 6.74609C241.035 6.74609 240.549 6.54688 240.139 6.14844C239.729 5.75 239.523 5.26953 239.523 4.70703C239.523 4.14453 239.729 3.66406 240.139 3.26562C240.549 2.86719 241.035 2.66797 241.598 2.66797C242.16 2.66797 242.641 2.86719 243.039 3.26562C243.449 3.66406 243.654 4.14453 243.654 4.70703C243.654 5.26953 243.449 5.75 243.039 6.14844C242.641 6.54688 242.16 6.74609 241.598 6.74609ZM242.389 21.0195C242.389 21.7227 242.406 22.7773 242.441 24.1836C242.488 25.5781 242.512 26.627 242.512 27.3301C242.512 27.8457 242.354 28.2676 242.037 28.5957C241.721 28.9238 241.305 29.0879 240.789 29.0879C240.285 29.0879 239.869 28.9238 239.541 28.5957C239.225 28.2676 239.066 27.8457 239.066 27.3301C239.066 26.627 239.043 25.5781 238.996 24.1836C238.961 22.7773 238.943 21.7227 238.943 21.0195C238.943 19.918 239.002 18.5469 239.119 16.9062C239.236 15.2539 239.295 13.877 239.295 12.7754C239.295 12.248 239.453 11.8203 239.77 11.4922C240.098 11.1641 240.514 11 241.018 11C241.521 11 241.932 11.1641 242.248 11.4922C242.576 11.8203 242.74 12.248 242.74 12.7754C242.74 13.877 242.682 15.2539 242.564 16.9062C242.447 18.5469 242.389 19.918 242.389 21.0195ZM260.195 15.4648C259.551 15.4648 259.1 15.248 258.842 14.8145C258.666 14.5098 258.514 13.877 258.385 12.916C257.506 13.1387 256.152 13.5488 254.324 14.1465C252.438 14.8965 251.488 15.8223 251.477 16.9238C251.828 17.0527 252.174 17.1465 252.514 17.2051C255.209 17.6855 257.213 18.3477 258.525 19.1914C260.436 20.4219 261.391 22.2031 261.391 24.5352C261.391 26.4453 260.564 27.8867 258.912 28.8594C257.541 29.6562 255.807 30.0547 253.709 30.0547C252.174 30.0547 250.709 29.7969 249.314 29.2812C247.51 28.625 246.607 27.7109 246.607 26.5391C246.607 26.0703 246.789 25.6602 247.152 25.3086C247.527 24.957 247.949 24.7812 248.418 24.7812C248.781 24.7812 249.25 25.0625 249.824 25.625C250.105 25.8945 250.738 26.1172 251.723 26.293C252.508 26.4336 253.17 26.5039 253.709 26.5039C254.693 26.5039 255.561 26.3867 256.311 26.1523C257.4 25.8125 257.945 25.2734 257.945 24.5352C257.945 22.9414 256.832 21.8633 254.605 21.3008L252.777 20.8965C251.219 20.5566 250.111 20.1582 249.455 19.7012C248.506 19.0449 248.031 18.0547 248.031 16.7305C248.031 14.2812 249.186 12.5352 251.494 11.4922C252.197 11.1758 253.322 10.8008 254.869 10.3672C256.416 9.92188 257.523 9.54688 258.191 9.24219C258.672 9.03125 259.193 8.92578 259.756 8.92578C260.26 8.92578 260.67 9.08984 260.986 9.41797C261.314 9.74609 261.479 10.1738 261.479 10.7012C261.479 11.041 261.549 11.5391 261.689 12.1953C261.842 12.8516 261.918 13.3496 261.918 13.6895C261.918 14.2168 261.754 14.6445 261.426 14.9727C261.109 15.3008 260.699 15.4648 260.195 15.4648ZM268.439 35.0469C268.029 35.0469 267.672 34.8887 267.367 34.5723C267.062 34.2559 266.91 33.8926 266.91 33.4824C266.91 33.1426 267.273 32.1348 268 30.459C268.633 29.0059 269.119 27.9688 269.459 27.3477C269.764 26.7852 270.168 26.5039 270.672 26.5039C271.094 26.5039 271.451 26.668 271.744 26.9961C272.049 27.3125 272.201 27.6758 272.201 28.0859C272.201 28.3672 271.369 30.3711 269.705 34.0977C269.436 34.7305 269.014 35.0469 268.439 35.0469ZM302.805 13.4785C302.664 15.2012 302.594 16.9238 302.594 18.6465C302.594 22.5488 302.775 25.4961 303.139 27.4883C303.162 27.6523 303.174 27.7871 303.174 27.8926C303.174 28.3613 303.01 28.748 302.682 29.0527C302.354 29.3574 301.973 29.5098 301.539 29.5098C300.812 29.5098 300.279 28.9824 299.939 27.9277C299.096 28.5488 298.217 29.0176 297.303 29.334C296.4 29.6504 295.457 29.8086 294.473 29.8086C292.047 29.8086 290.037 29 288.443 27.3828C286.803 25.7305 285.982 23.6094 285.982 21.0195C285.982 17.8906 286.809 15.3828 288.461 13.4961C290.125 11.6094 292.281 10.666 294.93 10.666C296.289 10.666 297.338 10.877 298.076 11.2988L299.729 12.5117C299.893 7.57812 300.086 4.25586 300.309 2.54492C300.461 1.50195 300.994 0.980469 301.908 0.980469C302.975 0.980469 303.508 1.54883 303.508 2.68555C303.508 4.31445 303.273 7.91211 302.805 13.4785ZM295 13.9355C293.031 13.9355 291.555 14.5215 290.57 15.6934C289.586 16.8535 289.094 18.6055 289.094 20.9492C289.094 22.4609 289.627 23.7617 290.693 24.8516C291.771 25.9414 293.031 26.4863 294.473 26.4863C295.457 26.4863 296.289 26.3047 296.969 25.9414C297.367 25.7305 298.018 25.2441 298.92 24.4824C299.096 24.3301 299.266 24.1484 299.43 23.9375L299.377 20.8965L299.395 18.8574L299.43 16.7832C298.984 15.834 298.393 15.125 297.654 14.6562C296.916 14.1758 296.031 13.9355 295 13.9355ZM321.508 30.1602C321.285 30.1602 320.881 29.9023 320.295 29.3867C319.768 28.9062 319.375 28.4785 319.117 28.1035C317.992 28.7129 317.002 29.1699 316.146 29.4746C315.291 29.791 314.576 29.9492 314.002 29.9492C311.26 29.9492 309.262 29.1758 308.008 27.6289C306.824 26.1758 306.232 23.9492 306.232 20.9492C306.232 18.1133 307.205 15.6875 309.15 13.6719C311.107 11.6562 313.439 10.6484 316.146 10.6484C317.166 10.6484 318.309 10.9121 319.574 11.4395C321.168 12.0957 321.965 12.8867 321.965 13.8125C321.965 14.1289 321.848 14.4102 321.613 14.6562C321.496 15.1016 321.402 15.834 321.332 16.8535C321.273 17.873 321.238 19.1797 321.227 20.7734C321.215 22.2266 321.314 23.375 321.525 24.2188C321.643 24.7344 322.012 25.7656 322.633 27.3125C322.715 27.5234 322.85 27.834 323.037 28.2441L323.143 28.543C323.143 29.0117 322.979 29.3984 322.65 29.7031C322.322 30.0078 321.941 30.1602 321.508 30.1602ZM317.852 17.9434C317.852 17.4395 317.881 16.8945 317.939 16.3086C318.01 15.7109 318.109 15.0781 318.238 14.4102C317.805 14.1875 317.43 14.0234 317.113 13.918C316.809 13.8125 316.562 13.7598 316.375 13.7598C314.559 13.7598 312.988 14.5039 311.664 15.9922C310.352 17.4688 309.695 19.1738 309.695 21.1074C309.695 23.0293 310.035 24.4707 310.715 25.4316C311.395 26.3926 312.414 26.873 313.773 26.873C314.898 26.873 315.854 26.668 316.639 26.2578C317.061 26.0352 317.652 25.5898 318.414 24.9219C318.039 21.8164 317.852 19.4902 317.852 17.9434ZM339.684 30.248C338.676 30.248 338.107 29.6973 337.979 28.5957L337.486 24.7461C337.322 23.375 337.24 22.0918 337.24 20.8965C337.24 20.5684 337.258 20.0117 337.293 19.2266C337.34 18.4414 337.363 17.8848 337.363 17.5566C337.363 15.0254 336.895 13.7598 335.957 13.7598C334.645 13.7598 333.391 14.5391 332.195 16.0977C331.117 17.5156 330.273 19.3086 329.664 21.4766C329.641 21.9336 329.588 22.5078 329.506 23.1992C329.436 23.7852 329.4 24.3535 329.4 24.9043C329.4 25.2559 329.436 25.7832 329.506 26.4863C329.576 27.1895 329.611 27.7168 329.611 28.0684C329.611 28.5957 329.447 29.0234 329.119 29.3516C328.803 29.6797 328.393 29.8438 327.889 29.8438C327.373 29.8438 326.957 29.6797 326.641 29.3516C326.324 29.0234 326.166 28.5957 326.166 28.0684C326.166 27.7168 326.125 27.1895 326.043 26.4863C325.973 25.7832 325.938 25.2559 325.938 24.9043C325.938 23.6973 326.02 22.0273 326.184 19.8945C326.359 17.75 326.447 16.0742 326.447 14.8672C326.447 14.4922 326.424 13.9355 326.377 13.1973C326.342 12.459 326.324 11.9023 326.324 11.5273C326.324 11.0234 326.488 10.6133 326.816 10.2969C327.156 9.96875 327.572 9.80469 328.064 9.80469C329.143 9.80469 329.734 10.5664 329.84 12.0898L329.893 14.1465C331.861 11.5215 333.883 10.209 335.957 10.209C337.832 10.209 339.139 11.0352 339.877 12.6875C340.381 13.7891 340.656 15.418 340.703 17.5742V19.3496L340.686 20.9844C340.686 21.957 340.809 23.2168 341.055 24.7637C341.312 26.2988 341.441 27.5469 341.441 28.5078C341.441 29.0234 341.271 29.4395 340.932 29.7559C340.604 30.084 340.188 30.248 339.684 30.248ZM381.924 30.459C381.291 30.459 380.77 30.1309 380.359 29.4746C380.008 28.9121 379.691 27.9746 379.41 26.6621L378.777 23.6387C378.297 21.7637 377.535 17.627 376.492 11.2285L372.977 21.8281L371.939 25.168C371.518 26.4922 371.078 27.5762 370.621 28.4199C370.129 29.3105 369.467 29.7559 368.635 29.7559C367.943 29.7559 367.398 29.3809 367 28.6309C366.742 28.1387 366.508 27.5117 366.297 26.75L365.787 24.7988C364.604 20.6621 363.561 16.2324 362.658 11.5098L362.025 14.6562L359.758 23.9375C359.664 25.0273 359.371 26.6387 358.879 28.7715C358.527 29.6855 357.947 30.1426 357.139 30.1426C356.564 30.1426 356.107 29.9375 355.768 29.5273C355.475 29.1758 355.328 28.7422 355.328 28.2266C355.328 26.2695 355.732 23.8672 356.541 21.0195L358.475 13.9355L359.494 8.39844C360.01 5.80859 360.555 4.11523 361.129 3.31836C361.598 2.63867 362.178 2.29883 362.869 2.29883C363.631 2.29883 364.199 2.73242 364.574 3.59961C365.031 4.64258 365.523 6.76953 366.051 9.98047C366.672 13.8359 367.639 18.0078 368.951 22.4961C370.686 17.9844 372.186 13.2852 373.451 8.39844L373.979 5.83203C374.189 4.80078 374.465 3.96875 374.805 3.33594C375.262 2.46875 375.889 2.03516 376.686 2.03516C377.693 2.03516 378.461 3.00781 378.988 4.95312C379.176 5.62109 379.404 7.00391 379.674 9.10156C380.365 14.3984 381.227 18.9219 382.258 22.6719L383.119 25.6953C383.564 27.3125 383.787 28.3086 383.787 28.6836C383.787 29.1875 383.594 29.6094 383.207 29.9492C382.832 30.2891 382.404 30.459 381.924 30.459ZM401.928 18.7344C401.928 19.5781 401.934 20.8438 401.945 22.5312C401.957 24.2188 401.963 25.4844 401.963 26.3281C401.963 26.5859 401.98 26.9785 402.016 27.5059C402.062 28.0332 402.086 28.4258 402.086 28.6836C402.086 29.1875 401.916 29.5977 401.576 29.9141C401.236 30.2422 400.82 30.4062 400.328 30.4062C399.426 30.4062 398.852 29.8496 398.605 28.7363C397.141 29.498 395.453 29.8789 393.543 29.8789C392.008 29.8789 390.736 29.5391 389.729 28.8594C388.615 28.1094 387.953 27.0137 387.742 25.5723C387.285 22.4668 387.057 19.7012 387.057 17.2754C387.057 15.6699 387.232 13.8418 387.584 11.791C387.748 10.7715 388.305 10.2617 389.254 10.2617C389.758 10.2617 390.18 10.4258 390.52 10.7539C390.859 11.0703 391.029 11.4805 391.029 11.9844C391.029 12.5234 390.941 13.3848 390.766 14.5684C390.602 15.752 390.52 16.6543 390.52 17.2754C390.52 19.2324 390.584 20.9082 390.713 22.3027C390.842 23.6973 391.035 24.8164 391.293 25.6602C391.68 25.8711 392.061 26.0352 392.436 26.1523C392.811 26.2578 393.18 26.3105 393.543 26.3105C395.113 26.3105 396.771 26.0586 398.518 25.5547L398.5 21.9863L398.465 18.5762C398.465 16.0449 398.576 13.8477 398.799 11.9844C398.928 10.9062 399.496 10.3672 400.504 10.3672C401.008 10.3672 401.43 10.5312 401.77 10.8594C402.109 11.1875 402.268 11.5977 402.244 12.0898L401.928 18.7344ZM419.998 16.0098C419.916 17.4746 419.33 18.207 418.24 18.207C417.232 18.207 416.729 17.627 416.729 16.4668C416.729 16.2441 416.711 15.834 416.676 15.2363L416.623 13.7598C414.771 13.9824 413.289 14.5039 412.176 15.3242C411.133 16.0859 410.266 17.2344 409.574 18.7695L409.609 28.4023C409.609 29.5859 409.029 30.1777 407.869 30.1777C406.838 30.1777 406.322 29.5859 406.322 28.4023V16.0625C406.322 15.6758 406.334 15.0957 406.357 14.3223C406.393 13.5488 406.41 12.9688 406.41 12.582C406.41 11.3984 406.926 10.8066 407.957 10.8066C409.105 10.8066 409.686 11.7793 409.697 13.7246C411.947 11.5566 414.443 10.4727 417.186 10.4727C418.135 10.4727 418.844 10.8301 419.312 11.5449C419.781 12.2598 420.016 13.3379 420.016 14.7793C420.016 15.3887 420.01 15.7988 419.998 16.0098ZM437.348 30.1602C437.125 30.1602 436.721 29.9023 436.135 29.3867C435.607 28.9062 435.215 28.4785 434.957 28.1035C433.832 28.7129 432.842 29.1699 431.986 29.4746C431.131 29.791 430.416 29.9492 429.842 29.9492C427.1 29.9492 425.102 29.1758 423.848 27.6289C422.664 26.1758 422.072 23.9492 422.072 20.9492C422.072 18.1133 423.045 15.6875 424.99 13.6719C426.947 11.6562 429.279 10.6484 431.986 10.6484C433.006 10.6484 434.148 10.9121 435.414 11.4395C437.008 12.0957 437.805 12.8867 437.805 13.8125C437.805 14.1289 437.688 14.4102 437.453 14.6562C437.336 15.1016 437.242 15.834 437.172 16.8535C437.113 17.873 437.078 19.1797 437.066 20.7734C437.055 22.2266 437.154 23.375 437.365 24.2188C437.482 24.7344 437.852 25.7656 438.473 27.3125C438.555 27.5234 438.689 27.834 438.877 28.2441L438.982 28.543C438.982 29.0117 438.818 29.3984 438.49 29.7031C438.162 30.0078 437.781 30.1602 437.348 30.1602ZM433.691 17.9434C433.691 17.4395 433.721 16.8945 433.779 16.3086C433.85 15.7109 433.949 15.0781 434.078 14.4102C433.645 14.1875 433.27 14.0234 432.953 13.918C432.648 13.8125 432.402 13.7598 432.215 13.7598C430.398 13.7598 428.828 14.5039 427.504 15.9922C426.191 17.4688 425.535 19.1738 425.535 21.1074C425.535 23.0293 425.875 24.4707 426.555 25.4316C427.234 26.3926 428.254 26.873 429.613 26.873C430.738 26.873 431.693 26.668 432.479 26.2578C432.9 26.0352 433.492 25.5898 434.254 24.9219C433.879 21.8164 433.691 19.4902 433.691 17.9434ZM456.754 30.0898C455.922 30.0898 455.377 29.6445 455.119 28.7539C454.85 27.793 454.604 26.4277 454.381 24.6582C454.17 22.959 454.064 21.5645 454.064 20.4746C454.064 20.1699 454.076 19.707 454.1 19.0859C454.135 18.4648 454.152 18.002 454.152 17.6973C454.152 15.4941 453.602 14.3926 452.5 14.3926C451.012 14.3926 449.682 15.0664 448.51 16.4141C447.912 17.1055 447.092 18.4238 446.049 20.3691C446.049 24.834 445.861 27.4766 445.486 28.2969C445.158 29.0234 444.648 29.3867 443.957 29.3867C443.477 29.3867 443.055 29.2227 442.691 28.8945C442.328 28.5664 442.146 28.168 442.146 27.6992C442.146 27.5352 442.199 27.2773 442.305 26.9258C442.398 26.6328 442.463 25.7773 442.498 24.3594L442.551 21.7578L442.604 8.83789C442.686 7.38477 442.727 6.40625 442.727 5.90234C442.727 5.30469 442.668 4.74219 442.551 4.21484C442.445 3.67578 442.393 3.11914 442.393 2.54492C442.393 2.05273 442.562 1.64844 442.902 1.33203C443.242 1.00391 443.658 0.839844 444.15 0.839844C445.111 0.839844 445.674 1.35547 445.838 2.38672C446.025 3.52344 446.119 4.54883 446.119 5.46289C446.119 6.69336 446.078 7.97656 445.996 9.3125C445.926 10.5898 445.896 11.873 445.908 13.1621L445.926 14.709C446.887 13.4199 447.912 12.459 449.002 11.8262C450.104 11.1816 451.27 10.8594 452.5 10.8594C454.445 10.8594 455.781 11.4922 456.508 12.7578C457.023 13.6484 457.316 15.1484 457.387 17.2578L457.527 20.6152L457.879 24.2715C458.043 25.6426 458.242 26.8496 458.477 27.8926C458.523 28.0918 458.547 28.2617 458.547 28.4023C458.547 28.8828 458.371 29.2812 458.02 29.5977C457.668 29.9258 457.246 30.0898 456.754 30.0898Z" fill="#F0D800"/>
</svg>
