<svg width="75" height="75" viewBox="0 0 75 75" fill="none" xmlns="http://www.w3.org/2000/svg">
<path d="M75 37.5C75 58.2107 58.2107 75 37.5 75C16.7893 75 0 58.2107 0 37.5C0 16.7893 16.7893 0 37.5 0C58.2107 0 75 16.7893 75 37.5Z" fill="white"/>
<path d="M36.3389 25.8437C37.1592 25.8437 37.9681 26.2653 38.7656 27.1084C43.8014 32.5316 48.222 38.2168 52.0273 44.1641C52.4375 44.8021 52.6426 45.4059 52.6426 45.9756C52.6426 46.7959 52.3236 47.5137 51.6855 48.1289C51.0247 48.7214 50.2842 49.0176 49.4639 49.0176C48.5524 49.0176 47.7549 48.5732 47.0713 47.6846L36.9541 34.4228C35.6097 36.4508 33.5475 38.9574 30.7676 41.9424C27.3268 45.5882 24.9456 47.4111 23.624 47.4111C22.8037 47.4111 22.0859 47.0921 21.4707 46.4541C20.8555 45.8161 20.5478 45.0869 20.5478 44.2666C20.5478 43.4235 20.9352 42.6602 21.7099 41.9766C27.5205 36.7812 31.5195 32.0758 33.707 27.8603C34.3906 26.5159 35.2679 25.8437 36.3389 25.8437Z" fill="#AE1919"/>
</svg>
